<svg xmlns="http://www.w3.org/2000/svg" viewBox="0 0 235 235" width="235" height="235">
<defs><filter id="hat-juggler-blur" x="-30%" y="-100%" width="160%" height="300%"><feGaussianBlur stdDeviation="3.5"/></filter></defs>
<g id="shadow"><ellipse cx="114" cy="198" rx="40" ry="8" fill="#000" opacity="0.32" filter="url(#hat-juggler-blur)"/></g>
<g id="hj-feet">
<g id="hj-feet-0">
<defs><path id="hj-feet-0-s" d="M107.9 185.2c-0.5 1.7-1.3 3.8-2.3 4.9-0.9 1.1-1.9 1.5-3.4 1.8-1.4 0.2-2.7 0.2-5.2-0.4-2.5-0.6-7.4-2.2-9.8-3.2-2.4-0.9-3.6-1.7-4.7-2.7-1.1-1-1.8-2-1.9-3.4-0.1-1.5 0.5-3.8 1.2-5.5 0.7-1.6 1.9-3.5 2.9-4.5 1.1-1.1 1.9-1.4 3.3-1.7 1.4-0.3 2.4-0.6 5-0.2 2.5 0.5 7.7 2.1 10.1 3.1 2.5 1 3.5 1.9 4.4 3 1 1.1 1.3 2 1.4 3.5 0 1.4-0.4 3.6-1 5.3z"/><clipPath id="hj-feet-0-c"><use href="#hj-feet-0-s"/></clipPath></defs>
<use href="#hj-feet-0-s" fill="#1c2742" transform="translate(1.0 2.5)"/>
<use href="#hj-feet-0-s" fill="#3e598a"/>
<g clip-path="url(#hj-feet-0-c)"><use href="#hj-feet-0-s" fill="#5678aa" transform="matrix(.78 0 0 .78 19.2 38.4)"/></g>
</g>
<g id="hj-feet-1">
<defs><path id="hj-feet-1-s" d="M151.1 185.2c0.2 2.2-0.1 5-0.9 6.7-0.7 1.7-1.9 2.7-3.8 3.6-1.9 1-3.9 1.6-7.7 2.1-3.8 0.5-11.4 0.9-15.1 0.9-3.8 0-5.2-0.4-7.3-1-2.1-0.5-3.9-0.8-5.3-2.2-1.4-1.4-2.8-4.1-3.2-6.4-0.3-2.2 0-5.3 1-7 1.1-1.7 3.1-2.4 5.3-3.2 2.1-0.8 4-1.2 7.7-1.7 3.8-0.5 10.9-1.3 14.7-1.5 3.8-0.2 5.9-0.2 8.1 0.3 2.1 0.5 3.7 1.2 4.8 2.7 1.1 1.6 1.6 4.4 1.7 6.7z"/><clipPath id="hj-feet-1-c"><use href="#hj-feet-1-s"/></clipPath></defs>
<use href="#hj-feet-1-s" fill="#1c2742" transform="translate(-2.5 -0.4)"/>
<use href="#hj-feet-1-s" fill="#3f5b8c"/>
<g clip-path="url(#hj-feet-1-c)"><use href="#hj-feet-1-s" fill="#577aac" transform="matrix(.78 0 0 .78 26.1 39.4)"/><ellipse cx="121.1" cy="182.5" rx="5.9" ry="1.8" fill="#9cbce0" transform="rotate(-30 121.1 182.5)"/></g>
</g>
</g>
<g id="hj-fin">
<defs><path id="hj-fin-s" d="M179 160c0 1 0 3-1 4-2 2-4 3-6 5-2 1-5 2-8 3-2 1-5 1-7 1-2-1-3-2-4-3 0-1 0-3 1-4 2-2 4-3 6-5 2-1 5-2 8-3 2-1 5-1 7-1 2 1 4 2 4 3z"/><clipPath id="hj-fin-c"><use href="#hj-fin-s"/></clipPath></defs>
<use href="#hj-fin-s" fill="#232c3a" stroke="#232c3a" stroke-width="1.2" stroke-linejoin="round" transform="translate(0.4 1)"/>
<use href="#hj-fin-s" fill="#4b5d70"/>
<g clip-path="url(#hj-fin-c)">
<path d="M176 156c0 1 0 2-1 3-1 1-4 3-6 4-2 1-5 3-7 3-3 1-5 1-6 1-2 0-3-1-4-1 0-1 0-2 1-3 1-1 3-3 6-4 2-1 5-2 7-3 3-1 5-1 7-1 1 0 3 0 3 1z" fill="#6f8497"/>
<ellipse cx="164" cy="160.5" rx="4" ry="1.1" fill="#a3b4c2" transform="rotate(-22 164 160.5)"/>
</g>
</g>
<g id="hj-coil">
<defs><path id="hj-coil-s" d="M58 100c1 3 1 7 0 10-1 2-3 5-4 6-2 2-5 3-8 2-2 0-5-2-7-4-2-2-3-5-4-8-1-2-1-6 0-9 1-2 2-5 4-7 2-1 5-1 8-1 2 0 5 1 7 3 2 2 4 6 4 8z"/><clipPath id="hj-coil-c"><use href="#hj-coil-s"/></clipPath></defs>
<use href="#hj-coil-s" fill="#45182f" stroke="#45182f" stroke-width="1.2" stroke-linejoin="round" transform="translate(0.5 1)"/>
<use href="#hj-coil-s" fill="#7a395a"/>
<g clip-path="url(#hj-coil-c)">
<path d="M55 97c0 2 0 5-1 7-1 1-2 3-4 4-2 1-4 2-6 2-2 0-4-1-6-3-1-1-3-4-3-6 0-2 0-5 1-6 1-2 2-4 4-5 2-2 4-3 6-2 2 0 4 1 6 3 1 2 2 4 3 6z" fill="#8f4569"/>
<path d="M56.8 90.1c0.2 0.6 0 1.4-0.4 2-0.5 0.5-1.4 1.2-2.3 1.5-0.9 0.4-2.2 0.5-3.1 0.5-1-0.1-1.9-0.4-2.6-0.7-0.6-0.4-1-1-1.2-1.6-0.1-0.5-0.1-1.3 0.3-1.9 0.5-0.6 1.5-1.2 2.4-1.5 0.9-0.3 2.2-0.5 3.1-0.4 1 0 2 0.2 2.6 0.6 0.6 0.4 1.1 1 1.2 1.5z" fill="#cc77a0"/>
<ellipse cx="50" cy="89.8" rx="2" ry=".8" fill="#eab4cc" transform="rotate(-10 50 89.8)"/>
</g>
</g>
<g id="hj-coil-face">
<defs><path id="hj-coil-face-s" d="M65.6 104.6c0.5 2.1 0 4.9-0.7 6.8-0.7 1.9-2.2 3.7-3.7 4.7-1.6 1.1-3.7 2.1-5.5 1.9-1.8-0.2-3.9-1.6-5.4-3-1.5-1.5-3.1-3.6-3.6-5.7-0.6-2.1-0.5-4.9 0.2-6.8 0.6-2 2.3-3.8 3.9-4.8 1.5-1 3.6-1.5 5.5-1.3 1.8 0.2 3.9 1.2 5.5 2.6 1.5 1.3 3.3 3.5 3.8 5.6z"/><clipPath id="hj-coil-face-c"><use href="#hj-coil-face-s"/></clipPath></defs>
<use href="#hj-coil-face-s" fill="#5a2440" stroke="#5a2440" stroke-width="0.8" stroke-linejoin="round" transform="translate(0.4 0.9)"/>
<use href="#hj-coil-face-s" fill="#c08f9e"/>
<g clip-path="url(#hj-coil-face-c)">
<path d="M60.6 102.5c0.4 1.4 0.5 3.2 0.1 4.5-0.5 1.3-1.6 2.4-2.7 3.2-1 0.8-2.5 1.5-3.7 1.3-1.3-0.1-2.8-1-3.8-2-1-1-1.7-2.6-2.1-4-0.3-1.4-0.3-3.1 0.1-4.4 0.4-1.3 1.4-2.6 2.4-3.4 1.1-0.8 2.6-1.5 3.8-1.4 1.3 0.2 2.7 1.3 3.7 2.3 1 1 1.8 2.5 2.2 3.9z" fill="#d7b0ba"/>
<path d="M62.3 108.1c0.4 1.2 0.6 2.9 0.5 4-0.2 1.2-0.9 2.3-1.5 2.8-0.7 0.6-1.7 0.7-2.5 0.4-0.8-0.3-1.7-1-2.4-1.9-0.7-0.9-1.5-2.2-1.8-3.4-0.4-1.3-0.4-2.9-0.2-4 0.2-1.2 0.7-2.3 1.4-2.9 0.6-0.5 1.6-0.9 2.4-0.6 0.8 0.2 1.7 1.2 2.4 2.2 0.7 0.9 1.3 2.1 1.7 3.4z" fill="#8a5470"/>
</g>
</g>
<g id="hj-body">
<defs><path id="hj-body-s" d="M88 66c-4 3-3 8-5 12-1 4-2 10-2 14-1 5 0 9 0 13 1 4 1 8 1 12 1 4 2 8 3 12 1 4 2 8 4 11 1 4 5 6 6 10 2 3 1 8 3 11 1 3 4 6 7 8 2 3 5 4 8 6 4 1 9 2 14 3 4 0 10 0 14-1 4-1 9-3 12-6 3-2 6-6 8-9 3-2 3-4 5-7 1-4 3-8 4-12 1-5 1-9 1-13 0-5 1-11 1-15 0-5-1-11-1-15-1-5-1-8-2-12-1-4-3-8-5-12-2-3-4-6-7-9-4-3-7-6-12-8-5-2-11-5-17-5-6-1-13 1-19 3-7 2-17 5-21 9z"/><clipPath id="hj-body-c"><use href="#hj-body-s"/></clipPath></defs>
<use href="#hj-body-s" fill="#4e2a2e" stroke="#4e2a2e" stroke-width="1.2" stroke-linejoin="round" transform="translate(0.6 1)"/>
<use href="#hj-body-s" fill="#cc7d72"/>
<g clip-path="url(#hj-body-c)">
<path d="M70 40c17-11 93-6 111-1 18 6-1 26-3 33-3 6-8 4-12 6-4 2-8 5-12 8-4 2-8 5-14 7-5 2-12 4-19 6-6 2-13 3-20 4-8 1-18 12-24 1-5-10-24-53-7-64z" fill="#e4a59b"/>
<path d="M129 80c1 1-1 3-3 4-2 2-5 4-8 5-4 2-8 3-12 4-4 1-8 1-10 1-3 0-5 0-6-2 0-1 2-3 4-4 2-2 5-4 8-6 4-1 9-3 12-4 4 0 8-1 10 0 3 0 5 1 5 2z" fill="#efb6aa"/>
<path d="M166 104c0 3-1 7-2 10-1 2-3 4-4 4-1 0-3-2-4-4-1-2-2-7-2-10 0-3 1-7 2-10 1-2 3-4 4-4 1 0 3 1 4 4 1 2 2 7 2 10z" fill="#d98b7f"/>
<path d="M105 145c0 2-2 3-4 3-2 0-5-1-7-2-3-1-5-2-6-4-2-2-2-4-1-5 0-2 3-3 5-3 1 0 4 1 7 2 2 1 4 2 5 4 1 2 2 4 1 5z" fill="#b9696a"/>
<path d="M76 136c2-8 9 2 14 4 4 2 7 5 11 6 4 2 10 3 14 4 5 0 10 0 15-1 4-1 10-2 15-4 5-2 10-5 14-8 4-3 7-6 11-8 4-2 9-14 10-4 2 10 17 54 0 65-18 11-87 9-104 0-17-9-2-46 0-54z" fill="#4b3436"/>
<path d="M134 156c1 1-1 3-3 4-2 1-5 2-8 3-3 1-6 1-9 1-3 0-7 0-9-1-2-1-4-2-3-3 0-1 1-3 3-4 2-1 5-2 8-3 2-1 6-1 9-1 3 0 7 0 9 1 2 1 3 2 3 3z" fill="#5a3f40"/>
<ellipse cx="93" cy="84" rx="5" ry="1.6" fill="#f6cbbf" transform="rotate(-20 93 84)"/>
</g>
</g>
<g id="hj-ear">
<defs><path id="hj-ear-s" d="M169.8 74.5c0.9 1.8 1.5 4.3 1.7 6 0.1 1.7-0.3 3-0.8 4-0.5 1-1.2 1.9-2.2 1.8-1-0.1-2.6-1.1-3.8-2.4-1.2-1.3-2.6-3.6-3.4-5.4-0.9-1.9-1.4-4.2-1.6-5.9-0.2-1.7-0.1-3.5 0.4-4.5 0.4-1 1.4-1.7 2.4-1.5 1 0.2 2.5 1.5 3.8 2.8 1.2 1.3 2.6 3.2 3.5 5.1z"/><clipPath id="hj-ear-c"><use href="#hj-ear-s"/></clipPath></defs>
<use href="#hj-ear-s" fill="#8e4a49" stroke="#8e4a49" stroke-width="1.2" stroke-linejoin="round" transform="translate(-1.1 0.6)"/>
<use href="#hj-ear-s" fill="#e48f8a"/>
<g clip-path="url(#hj-ear-c)">
<path d="M167.1 72.8c0.6 1.3 1 2.8 1.2 3.9 0.2 1.2 0.2 2.3-0.1 3-0.3 0.6-0.9 0.8-1.6 0.7-0.6-0.2-1.6-0.8-2.3-1.6-0.8-0.9-1.6-2.4-2.2-3.6-0.6-1.3-1.1-2.9-1.3-4-0.2-1.1-0.1-2.2 0.2-2.8 0.3-0.6 1-0.8 1.6-0.7 0.7 0.2 1.6 0.6 2.3 1.4 0.8 0.9 1.7 2.5 2.2 3.7z" fill="#f2aaa4"/>
</g>
</g>
<path id="hj-tooth" fill="#e8a8b4" d="M92.5 146c0.9-1.1 6.8-1.4 8-0.5 1.2 0.9-0.5 4-1 6-0.5 2-1.2 5.9-1.9 6-0.7 0.1-1.4-3.6-2.2-5.5-0.8-1.9-3.8-4.9-2.9-6z"/>
<g id="hj-brim">
<defs><path id="hj-brim-s" d="M78 70c2-2 7 0 12-1 4 0 10 0 15-2 4-1 8-4 13-5 4-2 9-4 12-6 4-1 6-4 9-4 2 0 5 1 7 3 2 1 4 4 4 6 0 2-1 4-3 6-2 2-5 4-8 6-4 2-8 6-12 8-4 2-8 3-13 4-4 1-10 2-14 3-5 1-9 2-12 2-3 0-6 1-8-1-1-2-2-6-2-9 0-4-2-8 0-10z"/><clipPath id="hj-brim-c"><use href="#hj-brim-s"/></clipPath></defs>
<use href="#hj-brim-s" fill="#6e2a2c" stroke="#6e2a2c" stroke-width="1.2" stroke-linejoin="round" transform="translate(0.4 1.4)"/>
<use href="#hj-brim-s" fill="#e38385"/>
<g clip-path="url(#hj-brim-c)">
<path d="M70 85c2-2 11 2 16 1 5 0 10-1 15-2 4 0 7-1 12-2 4-2 9-3 13-5 4-2 8-5 11-7 4-3 5-8 9-9 4-2 11-8 14-1 2 6 16 33 1 40-15 7-76 3-91 0-15-2-3-13 0-15z" fill="#bb5450"/>
<path d="M110 72c0 1-2 2-3 3-1 1-3 2-6 2-2 1-6 2-9 2-2 1-5 1-7 0-1 0-3 0-3-1 0-1 1-2 3-3 1-1 4-2 6-2 3-1 6-2 9-2 2-1 5-1 7-1 2 1 2 1 3 2z" fill="#ec9b9b"/>
<ellipse cx="88" cy="75.5" rx="4" ry="1.3" fill="#f7c4c0" transform="rotate(-8 88 75.5)"/>
</g>
</g>
<g id="hj-band-b">
<defs><path id="hj-band-b-s" d="M79 56c1-3 2-5 6-6 3-1 10-2 15-2 5-1 11-2 15-3 5-2 10-4 13-5 3 0 4 0 6 2 1 1 2 4 3 6 0 2 1 4-1 6-1 2-3 3-6 4-3 2-6 3-10 5-4 1-8 3-12 4-4 1-9 1-13 2-4 0-9 0-11-1-3 0-4-1-5-3-1-2-1-7 0-9z"/><clipPath id="hj-band-b-c"><use href="#hj-band-b-s"/></clipPath></defs>
<use href="#hj-band-b-s" fill="#4a3846" stroke="#4a3846" stroke-width="1.2" stroke-linejoin="round" transform="translate(0.3 1.4)"/>
<use href="#hj-band-b-s" fill="#9f98a7"/>
<g clip-path="url(#hj-band-b-c)">
<path d="M113 56c0 1-1 2-3 3-1 1-4 3-7 3-2 1-6 3-9 3-2 0-5 0-7 0-2 0-3-1-4-1 0-1 1-2 2-3 2-1 5-2 8-3 3-1 6-2 9-3 2 0 6-1 8 0 1 0 3 1 3 1z" fill="#aea8b5"/>
<path d="M71 67c4-2 17 0 24-1 6-1 12-2 17-3 5-1 10-3 14-5 4-3 6-8 10-9 4-2 12-4 14 1 3 5 13 25-1 30-13 4-66 1-79-1-13-2-4-10 1-12z" fill="#8e8698"/>
</g>
</g>
<g id="hj-band-a">
<defs><path id="hj-band-a-s" d="M79 40c2-2 3-3 6-4 4-1 9-1 13-3 4-1 8-4 12-5 4-2 7-4 10-4 3-1 5 1 6 2 2 2 3 5 3 7 0 2-1 5-2 7-1 2-4 4-6 5-3 2-8 4-12 5-3 1-6 2-9 2-3 0-7 0-10 0-4-1-7-1-9-2-2-1-3-3-3-5 0-1 0-4 1-5z"/><clipPath id="hj-band-a-c"><use href="#hj-band-a-s"/></clipPath></defs>
<use href="#hj-band-a-s" fill="#4f3a4a" stroke="#4f3a4a" stroke-width="1.2" stroke-linejoin="round" transform="translate(0.3 1.5)"/>
<use href="#hj-band-a-s" fill="#c4aeb4"/>
<g clip-path="url(#hj-band-a-c)">
<path d="M108 41c0 0-1 1-2 2-1 1-3 2-6 3-2 0-5 1-7 1-2 0-4 0-6 0-1 0-3-1-3-1 0-1 1-2 2-3 1-1 3-2 6-3 2 0 5-1 7-1 2 0 5 0 6 0 1 0 2 1 3 2z" fill="#d4c2c6"/>
<path d="M117 52c-1-1 5-6 7-10 2-3 1-8 3-10 2-3 7-6 8-3 2 4 3 19 0 23-3 4-16 2-18 0z" fill="#b29ea8"/>
</g>
</g>
<g id="hj-crown">
<defs><path id="hj-crown-s" d="M79 34c0-2 0-5 1-8 1-2 3-5 5-6 3-2 5-3 8-4 3-1 7-1 9 0 3 0 6 1 8 2 2 1 3 2 5 4 1 1 3 4 4 6 0 2-1 4-2 6-2 1-4 3-7 4-3 1-7 2-10 3-4 0-6 0-9 0-3 0-7-1-9-2-2-1-2-3-3-5z"/><clipPath id="hj-crown-c"><use href="#hj-crown-s"/></clipPath></defs>
<use href="#hj-crown-s" fill="#4f3a4a" stroke="#4f3a4a" stroke-width="1.2" stroke-linejoin="round" transform="translate(0.3 1.5)"/>
<use href="#hj-crown-s" fill="#c8a8d6"/>
<g clip-path="url(#hj-crown-c)">
<path d="M119 29c0 2-2 5-3 6-1 1-3 2-4 2-2 0-4-2-4-3-1-2-1-5-1-7 0-2 2-4 3-6 1-1 3-2 5-2 1 0 2 2 3 4 1 1 1 4 1 6z" fill="#a493cc"/>
<path d="M107 24c1 2 1 4 0 6-2 1-4 3-6 4-3 1-6 2-8 1-3 0-6-1-7-2-2-1-3-3-3-5-1-2-1-4 0-5 1-2 4-4 7-5 2-1 5-1 8-1 2 0 5 1 6 2 2 1 3 3 3 5z" fill="#d9b9e4"/>
<path d="M104.9 20.3c0 0.5-0.4 1.3-0.9 1.9-0.6 0.6-1.5 1.3-2.6 1.7-1 0.5-2.5 0.7-3.6 0.8-1.2 0-2.5-0.1-3.2-0.4-0.8-0.4-1.3-1-1.4-1.6-0.1-0.6 0.1-1.3 0.6-1.9 0.6-0.6 1.7-1.3 2.8-1.7 1-0.4 2.4-0.6 3.6-0.7 1.1 0 2.6 0 3.4 0.3 0.7 0.3 1.2 1 1.3 1.6z" fill="#ecd6f2"/>
<ellipse cx="96" cy="20.5" rx="3" ry="1.1" fill="#fbf0fd" transform="rotate(-14 96 20.5)"/>
</g>
</g>
<g id="hj-arm">
<g id="hj-arm-0">
<defs><path id="hj-arm-0-s" d="M90.3 146.9c0.3 1 0.3 2.2 0.2 3.2-0.2 1.1-0.6 2.1-1 2.8-0.5 0.8-1.2 1.3-1.9 1.7-0.7 0.4-1.5 0.6-2.3 0.5-0.8 0-1.7-0.2-2.4-0.7-0.8-0.4-1.6-1.2-2.2-2.1-0.5-0.9-0.9-2.1-1.1-3.1-0.2-1.1-0.1-2.3 0-3.3 0.2-1 0.6-1.9 1.1-2.7 0.4-0.8 1-1.4 1.7-1.9 0.6-0.4 1.5-0.7 2.3-0.6 0.8 0 1.7 0.3 2.4 0.9 0.8 0.5 1.5 1.3 2 2.2 0.6 0.9 1 2 1.2 3.1z"/><clipPath id="hj-arm-0-c"><use href="#hj-arm-0-s"/></clipPath></defs>
<use href="#hj-arm-0-s" fill="#5e2232" transform="translate(1.0 2.5)"/>
<use href="#hj-arm-0-s" fill="#cb6a76"/>
<g clip-path="url(#hj-arm-0-c)"><use href="#hj-arm-0-s" fill="#dd8993" transform="matrix(.78 0 0 .78 18.1 31.5)"/><ellipse cx="83.5" cy="144.7" rx="1.5" ry="1.2" fill="#f2b8be" transform="rotate(-37 83.5 144.7)"/></g>
</g>
<g id="hj-arm-1">
<defs><path id="hj-arm-1-s" d="M84.2 132.4c0.3 0.8 0.5 1.6 0.4 2.5 0 0.8-0.2 1.8-0.7 2.6-0.4 0.7-1.2 1.5-2 2-0.8 0.5-1.9 0.8-2.8 0.9-0.9 0.1-1.9 0-2.8-0.3-0.8-0.3-1.7-0.7-2.3-1.3-0.6-0.6-1.1-1.4-1.4-2.1-0.3-0.8-0.4-1.7-0.3-2.6 0.2-0.8 0.5-1.7 1-2.5 0.4-0.7 1.1-1.5 1.9-2 0.7-0.6 1.7-1 2.7-1.1 0.9-0.2 2 0 2.8 0.3 0.9 0.3 1.7 0.9 2.2 1.5 0.6 0.6 1 1.3 1.3 2.1z"/><clipPath id="hj-arm-1-c"><use href="#hj-arm-1-s"/></clipPath></defs>
<use href="#hj-arm-1-s" fill="#5e2232" transform="translate(1.1 2.3)"/>
<use href="#hj-arm-1-s" fill="#d1727d"/>
<g clip-path="url(#hj-arm-1-c)"><use href="#hj-arm-1-s" fill="#e2919a" transform="matrix(.78 0 0 .78 16.5 28.7)"/></g>
</g>
</g>
<g id="hj-hand">
<g id="hj-hand-0">
<defs><path id="hj-hand-0-s" d="M79.2 114.5c0.6 1.3 1.1 2.8 1.3 4.1 0.1 1.4 0 2.9-0.4 4-0.4 1.1-1.3 2.1-2.1 2.6-0.8 0.6-1.9 0.8-2.9 0.9-1.1 0-2.2-0.3-3.2-0.8-1-0.5-2.1-1.3-3-2.2-0.8-1-1.6-2.3-2.2-3.6-0.5-1.2-0.8-2.7-0.9-4.1-0.1-1.3 0-2.7 0.3-3.9 0.4-1.1 1-2.2 1.8-2.9 0.8-0.7 1.9-1 3-1 1 0 2.2 0.5 3.2 1.1 1 0.6 2 1.5 2.8 2.5 0.8 0.9 1.7 2.1 2.3 3.3z"/><clipPath id="hj-hand-0-c"><use href="#hj-hand-0-s"/></clipPath></defs>
<use href="#hj-hand-0-s" fill="#7a3c48" transform="translate(1.0 2.5)"/>
<use href="#hj-hand-0-s" fill="#e7aab0"/>
<g clip-path="url(#hj-hand-0-c)"><use href="#hj-hand-0-s" fill="#f6cdd0" transform="matrix(.78 0 0 .78 15.2 24.3)"/><ellipse cx="70.7" cy="112.6" rx="1.9" ry="1.5" fill="#fff1f2" transform="rotate(-47 70.7 112.6)"/></g>
</g>
</g>
<g id="hj-hoop">
<defs><path id="hj-hoop-s" d="M180.6 140.3c-0.4 2.6-1.3 5.7-2.5 7.7-1.2 2.1-3.1 4-4.6 4.5-1.5 0.4-3.1-0.7-4.3-1.7-1.2-1.1-2.5-2.7-3-4.9-0.6-2.2-0.6-5.6-0.1-8.2 0.4-2.6 1.6-5.7 2.9-7.6 1.2-2 3-3.6 4.5-4.1 1.5-0.6 3.2-0.2 4.4 0.8 1.3 1 2.6 3 3 5.2 0.5 2.3 0.2 5.6-0.3 8.3z"/><clipPath id="hj-hoop-c"><use href="#hj-hoop-s"/></clipPath></defs>
<use href="#hj-hoop-s" fill="#4e2236" stroke="#4e2236" stroke-width="1.2" stroke-linejoin="round" transform="translate(0.5 1)"/>
<use href="#hj-hoop-s" fill="#c27088"/>
<g clip-path="url(#hj-hoop-c)">
<path d="M176.4 134.8c-0.3 1.4-1 3.1-1.7 4.1-0.7 1.1-1.7 1.8-2.6 2.2-0.9 0.3-2.1 0.5-2.8 0-0.7-0.6-1.3-2.1-1.5-3.4-0.3-1.3-0.3-3 0-4.4 0.2-1.5 0.7-3.3 1.4-4.4 0.7-1 1.8-1.8 2.7-2.1 0.9-0.3 2-0.2 2.7 0.4 0.7 0.5 1.4 1.8 1.7 3.1 0.3 1.2 0.3 3 0.1 4.5z" fill="#e1a2b8"/>
<path d="M179.1 141.3c-0.3 1.8-1.2 3.9-2 5.3-0.7 1.4-1.7 2.5-2.6 3-0.9 0.4-1.9 0.2-2.5-0.4-0.7-0.7-1.3-2.1-1.5-3.7-0.3-1.6-0.4-3.9 0-5.8 0.3-1.8 1.2-3.8 2-5.2 0.8-1.4 1.7-2.6 2.6-3.1 0.9-0.4 1.9-0.4 2.6 0.3 0.6 0.7 1.2 2.3 1.4 3.9 0.2 1.5 0.3 3.8 0 5.7z" fill="#4c2840"/>
<path d="M178.6 143.5c-0.3 1.2-0.7 2.7-1.2 3.7-0.4 0.9-1.1 1.5-1.7 1.7-0.5 0.3-1.1 0.3-1.5-0.1-0.4-0.5-0.8-1.4-0.9-2.4-0.2-1.1-0.1-2.6 0.1-3.9 0.2-1.2 0.6-2.9 1.1-3.8 0.5-0.8 1.2-1.3 1.8-1.5 0.5-0.3 1.1-0.3 1.5 0.1 0.4 0.4 0.9 1.2 1 2.2 0.1 1.1 0 2.7-0.2 4z" fill="#7a4058"/>
</g>
</g>
<g id="hj-reach">
<defs><path id="hj-reach-s" d="M177.5 141c0.3-1.3 1.7-1.5 3.5-2.4 1.8-0.9 4.8-1.9 7-3.2 2.2-1.3 4.2-3.5 6-4.8 1.8-1.3 3.4-2.8 4.6-2.8 1.2 0 2.9 1.7 2.8 2.8-0.1 1.1-1.5 2.1-3.2 3.6-1.7 1.5-4.8 3.8-7.2 5.4-2.4 1.6-5 3-7 4.2-2 1.2-3.9 3.3-5 2.8-1.1-0.5-1.8-4.3-1.5-5.6z"/><clipPath id="hj-reach-c"><use href="#hj-reach-s"/></clipPath></defs>
<use href="#hj-reach-s" fill="#4e1c32" stroke="#4e1c32" stroke-width="0.8" stroke-linejoin="round" transform="translate(0.3 0.8)"/>
<use href="#hj-reach-s" fill="#c66f8e"/>
<g clip-path="url(#hj-reach-c)">
<path d="M178 140c1.5-1.5 6.7-3.7 10-6 3.3-2.3 8-7.2 10-8 2-0.8 3.5 1.1 2 3-1.5 1.9-7.5 6.1-11 8.4-3.5 2.3-8.2 5.2-10 5.6-1.8 0.4-2.5-1.5-1-3z" fill="#e6a2be"/>
</g>
</g>
<g id="hj-loops">
<defs><path id="hj-lobe" d="M7.2 0c-0.1 0.8-0.5 1.7-1.3 2.3-0.8 0.6-2.2 1.3-3.6 1.5-1.4 0.3-3.2 0.2-4.6 0-1.4-0.2-3-0.8-3.9-1.4-0.8-0.6-1.2-1.6-1.2-2.4 0.1-0.8 0.7-1.7 1.5-2.3 0.9-0.6 2.3-1.2 3.7-1.4 1.3-0.3 3.1-0.4 4.5-0.2 1.4 0.3 3.1 0.8 4 1.4 0.8 0.7 0.9 1.7 0.9 2.5z"/><path id="hj-lobe-lit" d="M3.2-1c0 0.4-0.2 0.9-0.7 1.3-0.5 0.4-1.5 0.7-2.4 0.8-0.9 0.1-2 0.1-2.9-0.1-0.9-0.1-2-0.4-2.5-0.7-0.6-0.3-1-0.9-1-1.3 0-0.4 0.4-1 1-1.3 0.5-0.3 1.6-0.6 2.5-0.7 0.9-0.1 2-0.2 2.9-0.1 0.9 0.1 2 0.4 2.6 0.7 0.5 0.4 0.6 1 0.5 1.4z"/></defs>
<g transform="translate(203 136) rotate(22) scale(0.8)"><use href="#hj-lobe" fill="#8a3656" transform="translate(0.6 1.6)"/><use href="#hj-lobe" fill="#c66e8a"/><use href="#hj-lobe-lit" fill="#e4a0b6"/></g>
<g transform="translate(207 128) rotate(-26) scale(1)"><use href="#hj-lobe" fill="#8a3656" transform="translate(0.6 1.6)"/><use href="#hj-lobe" fill="#bd6984"/><use href="#hj-lobe-lit" fill="#da99ae"/></g>
<g transform="translate(201 120) rotate(24) scale(1)"><use href="#hj-lobe" fill="#8a3656" transform="translate(0.6 1.6)"/><use href="#hj-lobe" fill="#b86681"/><use href="#hj-lobe-lit" fill="#d595aa"/></g>
<g transform="translate(207 111.5) rotate(-24) scale(1)"><use href="#hj-lobe" fill="#8a3656" transform="translate(0.6 1.6)"/><use href="#hj-lobe" fill="#cb7792"/><use href="#hj-lobe-lit" fill="#e8a7bc"/></g>
<g transform="translate(201 103.5) rotate(20) scale(0.97)"><use href="#hj-lobe" fill="#8a3656" transform="translate(0.6 1.6)"/><use href="#hj-lobe" fill="#c9728f"/><use href="#hj-lobe-lit" fill="#e8a4ba"/></g>
<g transform="translate(204.5 95.5) rotate(-8) scale(1.1)"><use href="#hj-lobe" fill="#8a3656" transform="translate(0.6 1.6)"/><use href="#hj-lobe" fill="#ca7591"/><use href="#hj-lobe-lit" fill="#e8a6bb"/></g>
<ellipse cx="200.5" cy="94" rx="3" ry="1" fill="#fbe0ea" transform="rotate(-8 200.5 94)"/>
</g>
<g id="hj-eyes">
<g id="eye-0">
<path fill="#8a4643" d="M108 128.3c0.2 1.4 0 3.1-0.5 4.4-0.5 1.3-1.4 2.5-2.4 3.3-1 0.7-2.5 1.3-3.8 1.1-1.2-0.1-2.8-1-3.7-2.1-0.9-1-1.4-2.7-1.7-4.1-0.3-1.5-0.4-3.2 0-4.5 0.4-1.3 1.5-2.7 2.5-3.3 1.1-0.7 2.6-0.9 3.8-0.7 1.3 0.2 2.8 0.7 3.8 1.7 1 1 1.7 2.8 2 4.2z"/>
<path fill="#2c2a31" d="M106.3 127.4c0.2 1.2 0 2.7-0.4 3.8-0.4 1.2-1.2 2.3-2 2.9-0.9 0.6-2.2 1.2-3.3 1-1-0.1-2.4-0.9-3.2-1.8-0.7-1-1.2-2.5-1.5-3.7-0.2-1.3-0.3-2.8 0-3.9 0.4-1.2 1.3-2.4 2.2-2.9 0.9-0.6 2.2-0.8 3.2-0.6 1.1 0.2 2.5 0.6 3.3 1.5 0.8 0.9 1.5 2.4 1.7 3.7z"/>
<g><ellipse cx="100.6" cy="128.6" rx="3" ry="4.4" fill="#57535b" transform="rotate(-12 100.6 128.6)"/><ellipse cx="99.8" cy="127.4" rx=".9" ry="2.3" fill="#a59fa2" transform="rotate(-12 99.8 127.4)"/></g>
</g>
<g id="eye-1">
<path fill="#8a4643" d="M164.2 114.7c-0.3 1.4-1.2 2.9-2.1 3.9-1 1-2.4 1.8-3.7 2.1-1.3 0.3-2.9 0.2-4.2-0.4-1.2-0.6-2.5-1.8-3.1-3-0.6-1.3-0.7-3.1-0.5-4.5 0.2-1.5 0.9-3.1 1.8-4.1 1-1.1 2.5-1.9 3.8-2.1 1.3-0.2 2.8 0.1 4.1 0.7 1.2 0.6 2.6 1.6 3.2 2.8 0.7 1.2 0.9 3.1 0.7 4.6z"/>
<path fill="#2d2b2d" d="M162.5 113.4c-0.2 1.3-1 2.6-1.9 3.5-0.8 0.9-2 1.6-3.2 1.8-1.1 0.3-2.5 0.2-3.6-0.3-1-0.5-2.1-1.6-2.7-2.7-0.5-1.1-0.6-2.7-0.4-3.9 0.2-1.3 0.8-2.7 1.6-3.6 0.8-0.9 2.1-1.6 3.3-1.8 1.1-0.2 2.4 0.1 3.5 0.6 1 0.5 2.2 1.4 2.8 2.5 0.6 1 0.8 2.7 0.6 3.9z"/>
<g><ellipse cx="156.6" cy="113.2" rx="3.9" ry="4.4" fill="#464b47" transform="rotate(8 156.6 113.2)"/><ellipse cx="155" cy="110.4" rx="1.4" ry="1" fill="#848a84" transform="rotate(-30 155 110.4)"/></g>
</g>
</g>
</svg>
