<?xml version="1.0" encoding="UTF-8" standalone="no"?><!DOCTYPE svg PUBLIC "-//W3C//DTD SVG 1.1//EN" "http://www.w3.org/Graphics/SVG/1.1/DTD/svg11.dtd"><svg width="100%" height="100%" viewBox="0 0 750 750" version="1.1" xmlns="http://www.w3.org/2000/svg" xmlns:xlink="http://www.w3.org/1999/xlink" xml:space="preserve" xmlns:serif="http://www.serif.com/" style="fill-rule:evenodd;clip-rule:evenodd;stroke-linejoin:round;stroke-miterlimit:2;"><g><path d="M230.852,546.044l-24.42,24.489c-4.309,4.322 -11.411,4.332 -15.733,0.022l-181.393,-180.881c-8.627,-8.602 -8.647,-22.78 -0.045,-31.407l24.538,-24.607l197.148,196.592c4.322,4.31 4.332,11.412 0.022,15.733l-0.117,0.059Z" style="fill:#50e6ff;fill-rule:nonzero;"/><path d="M202.64,179.37l24.577,24.508c4.322,4.309 4.332,11.411 0.023,15.733l-193.68,194.227l-24.606,-24.537c-8.627,-8.602 -8.647,-22.78 -0.045,-31.407l178.057,-178.561c4.319,-4.267 11.375,-4.25 15.674,0.037Z" style="fill:#1490df;fill-rule:nonzero;"/></g><g><path d="M716.235,333.83l24.508,24.577c8.602,8.627 8.582,22.805 -0.045,31.408l-181.393,180.88c-4.321,4.31 -11.424,4.3 -15.733,-0.022l-24.39,-24.459c-4.309,-4.321 -4.299,-11.424 0.022,-15.733l197.119,-196.562l-0.088,-0.089Z" style="fill:#50e6ff;fill-rule:nonzero;"/><path d="M740.915,389.195l-24.577,24.508l-193.679,-194.228c-4.31,-4.321 -4.3,-11.424 0.022,-15.733l24.577,-24.508c4.322,-4.309 11.424,-4.299 15.733,0.022l178.057,178.561c8.602,8.627 8.582,22.805 -0.045,31.407l-0.088,-0.029Z" style="fill:#1490df;fill-rule:nonzero;"/></g><path d="M352.458,412.5l-149.541,0c-4.338,0.166 -8.067,-3.209 -8.334,-7.542c0.002,-1.086 0.258,-2.156 0.75,-3.125l179.292,-354.75c1.553,-2.8 4.549,-4.507 7.75,-4.416l176.875,-0c4.338,-0.166 8.067,3.209 8.333,7.541c-0.015,1.511 -0.527,2.976 -1.458,4.167l-210.542,277.542l205.334,-0c4.337,-0.166 8.066,3.209 8.333,7.541c-0.032,1.912 -0.81,3.737 -2.167,5.084l-341.208,354.958c-3.208,1.917 -26,20.833 -14.833,-7.875l141.416,-279.125Z" style="fill:url(#_Linear1);fill-rule:nonzero;"/><defs><linearGradient id="_Linear1" x1="0" y1="0" x2="1" y2="0" gradientUnits="userSpaceOnUse" gradientTransform="matrix(4.07163e-14,-664.948,664.948,4.07163e-14,380.212,702.376)"><stop offset="0" style="stop-color:#fea11b;stop-opacity:1"/><stop offset="0.28" style="stop-color:#fea51a;stop-opacity:1"/><stop offset="0.55" style="stop-color:#feb018;stop-opacity:1"/><stop offset="0.8" style="stop-color:#ffc314;stop-opacity:1"/><stop offset="1" style="stop-color:#ffd70f;stop-opacity:1"/></linearGradient></defs></svg>