<svg fill="#FFFFFF" xmlns="http://www.w3.org/2000/svg" xmlns:xlink="http://www.w3.org/1999/xlink" version="1.0" x="0px" y="0px" viewBox="0 0 100 100" enable-background="new 0 0 100 100" xml:space="preserve"><path d="M42.9314194,14.2224197c0.3706703-0.0766687,0.7565994-0.1364927,1.155838-0.1786089  c0.3985558-0.0420456,0.8104973-0.0664558,1.2339172-0.07236c0.4228287-0.0058966,0.8572426,0.0066595,1.3013725,0.0385523  c0.4436569,0.0318584,0.897171,0.0830259,1.3587112,0.1544037c1.378582,0.2133932,2.7019081,0.5876122,3.9177055,1.0824986  c1.217617,0.4956303,2.3313942,1.1139231,3.2868118,1.8153658c0.9597664,0.7046337,1.7624092,1.495142,2.350605,2.3316402  c0.5923843,0.8424568,0.9686203,1.7335033,1.0681877,2.6320705c0.0665855,0.602602,0.0046158,1.1708488-0.1720314,1.6963024  c-0.1777191,0.5286331-0.4714661,1.0138321-0.8669548,1.4468212c-0.3977432,0.435461-0.8981934,0.8178959-1.4865036,1.1382923  c-0.5912933,0.3220234-1.2708817,0.5811234-2.023243,0.7681618c-0.3788795,0.0941887-0.7760811,0.1700592-1.1895676,0.2264557  c-0.4142265,0.0564957-0.8446732,0.0934315-1.2892418,0.1096554c-0.4452324,0.0162506-0.9044762,0.0117226-1.3756027-0.0147133  c-0.4716568-0.0264664-0.9550438-0.0748806-1.4479752-0.1463547c-0.691185-0.1003246-1.3698845-0.2413979-2.0296135-0.4184723  c-0.6598396-0.1771011-1.300148-0.3900661-1.9145393-0.6340675c-0.6139984-0.243845-1.2016335-0.5184975-1.7566566-0.8190918  c-0.5542488-0.3001747-1.0755768-0.6260052-1.557869-0.9726143l-11.3309174,2.6420727  c0.1372356,0.4413624,0.2167397,0.8852539,0.2359371,1.3260632c0.0192814,0.4426918-0.0222569,0.882391-0.1272717,1.3133526  c-0.1054897,0.4328995-0.2750473,0.8570538-0.5113888,1.2665653c-0.2374363,0.4114094-0.5422974,0.8080711-0.9173088,1.1839371  c-0.2689171,0.2693672-0.565279,0.5194092-0.8860245,0.7498474c-0.3217411,0.2311554-0.6679382,0.442524-1.0354748,0.633831  c-0.3685837,0.1918488-0.7585297,0.363472-1.166666,0.514595c-0.4091816,0.1515083-0.8365269,0.2823677-1.2788105,0.3923225  c-0.8837509,0.2196999-1.82621,0.3556366-2.8011475,0.4058685c-0.9780083,0.0503922-1.9872818,0.0144653-3.0009537-0.1093788  c-1.0153084-0.1240425-2.0333786-0.3360825-3.0269365-0.6372643c-0.9934635-0.3011513-1.9606361-0.6908875-2.8741455-1.1697998  c-1.3691339-0.7180328-2.4838858-1.5660629-3.3259192-2.4816608c-0.8367758-0.9098797-1.4019127-1.8839703-1.6809468-2.8618336  c-0.2766795-0.9696121-0.2715936-1.9412842,0.027504-2.8575344c0.2962337-0.9074783,0.8806796-1.7599812,1.765101-2.5030918  c0.2939272-0.2468319,0.6116838-0.4738178,0.9500828-0.6810055c0.3373842-0.2065678,0.6953745-0.393507,1.070837-0.5608559  c0.3744392-0.1668949,0.7663593-0.314352,1.172678-0.4423962c0.4053278-0.1277332,0.8251019-0.236187,1.2562857-0.3253727  c0.8559294-0.1770382,1.7575397-0.2782135,2.6811666-0.3033733c0.920908-0.0250835,1.8649635,0.0253658,2.8090076,0.1518116  c0.942625,0.1262531,1.8866673,0.3284645,2.8092823,0.6074638c0.9226971,0.2790222,1.8255005,0.6353092,2.6856728,1.0701427  c0.2811794,0.1420269,0.5520363,0.2896404,0.8124657,0.4423065c0.2606297,0.1527805,0.5108585,0.3106441,0.7505722,0.4730473  c0.2399349,0.1625538,0.4693718,0.3296833,0.6881866,0.500843c0.2190514,0.1713428,0.4274883,0.3467503,0.6251812,0.5256786  l10.7230911-2.3925552c-0.10466-0.1934872-0.1973915-0.3884201-0.2776566-0.584322  c-0.0801239-0.1955547-0.1478157-0.3920555-0.202549-0.5890312c-0.0546303-0.1966095-0.096344-0.3936729-0.1246147-0.5907249  c-0.0282173-0.1966686-0.0430412-0.3933067-0.0439606-0.5894527c-0.0032501-0.5986042,0.1228485-1.1553459,0.360775-1.6629372  c0.2364998-0.5045452,0.5835609-0.96068,1.0241547-1.3613997c0.4381485-0.3984919,0.9690361-0.7424011,1.5762367-1.0248947  C41.5105438,14.5961018,42.1908455,14.3755779,42.9314194,14.2224197z"></path><path d="M72.4991074,28.3138084c1.1245575-0.2985802,2.3628616-0.3968601,3.6408081-0.3203144  c1.2739716,0.0763073,2.5916519,0.3266106,3.8799667,0.7274284c1.2886353,0.400919,2.5522003,0.9537678,3.717247,1.6365566  c1.16922,0.685236,2.2431183,1.5036354,3.1464539,2.4342804c0.9096222,0.9371262,1.5622559,1.9013863,1.9621811,2.8447914  c0.4033508,0.9514732,0.5500717,1.8827209,0.4431229,2.7429581c-0.1079178,0.8680763-0.474144,1.6638336-1.0954437,2.3336983  c-0.6266327,0.6756172-1.5120468,1.2224236-2.651001,1.5847931c-0.9742126,0.3099594-2.053093,0.4591789-3.1850967,0.4619331  c-1.1357269,0.002758-2.3219681-0.1419258-3.5062866-0.418499c-1.1851349-0.2767639-2.3652573-0.6848831-3.4878769-1.2077522  c-1.1204834-0.5218773-2.180809-1.1567307-3.1292496-1.8871956l-11.0492516,3.2818909  c0.4578857,0.9101562,0.7075424,1.8225288,0.7557297,2.7028847c0.0485802,0.8875999-0.1076202,1.7430573-0.4620056,2.5303154  c-0.3573532,0.7938385-0.9161263,1.5181236-1.669014,2.1350899c-0.758728,0.6217499-1.7138329,1.1338844-2.8563919,1.4974022  c-1.1503983,0.3660126-2.3949127,0.5510979-3.6772346,0.5705795c-1.2869148,0.0195465-2.6082649-0.1277504-3.9068527-0.4249992  c-1.2995567-0.2974663-2.5726433-0.7442665-3.7621613-1.3222008c-1.1870689-0.5767441-2.2875977-1.2824707-3.2456055-2.0980339  l-11.2346306,3.3369522c0.3761482,1.0231895,0.5167561,2.0523911,0.4345531,3.0488167  c-0.0829391,1.0053253-0.3927307,1.977787-0.9165497,2.8763428c-0.5285797,0.906723-1.2749443,1.7379417-2.2251091,2.4504929  c-0.9581871,0.7185669-2.1225834,1.3156738-3.4770126,1.7466049c-1.605669,0.5108604-3.32024,0.7381897-5.0429153,0.709095  c-1.7294807-0.029213-3.4597607-0.3167534-5.0888214-0.8318977c-1.6285505-0.5149803-3.1490355-1.2552414-4.4609537-2.1872368  c-1.3059931-0.927784-2.3998637-2.0417175-3.1851931-3.3064537c-0.7785912-1.2538834-1.1778407-2.5337524-1.2368531-3.7713852  c-0.0584073-1.2249489,0.2165484-2.4072342,0.7857537-3.4831657c0.5631723-1.0645294,1.4145174-2.0251846,2.5173731-2.8221703  c1.0921459-0.7892418,2.4325161-1.4191208,3.9885426-1.8322601c1.3131361-0.3486481,2.6778259-0.5156136,4.0419016-0.5199051  c1.3591671-0.0042725,2.7216301,0.1529465,4.035717,0.454258c1.3131027,0.3010826,2.5816231,0.7468872,3.753561,1.3212662  c1.1743698,0.5755692,2.2550716,1.281868,3.1889477,2.1037369l11.1642151-3.175251  c-0.389183-0.9441032-0.5525246-1.8760872-0.5058899-2.7604446c0.0462494-0.877037,0.2990036-1.7069511,0.7426262-2.4560699  c0.4399872-0.7429771,1.0678978-1.4067764,1.8691597-1.9592247c0.7953033-0.5483437,1.7622452-0.9875832,2.8879395-1.2864647  c1.1184158-0.2969513,2.3061295-0.4319382,3.5143356-0.4222641c1.2041969,0.0096397,2.431942,0.163002,3.6350441,0.4440994  c1.2022667,0.2809029,2.3830643,0.6900978,3.4940758,1.2126236c1.1131363,0.5235252,2.159111,1.1621819,3.088768,1.9018059  l11.0040131-3.1296844c-0.4625244-0.8404655-0.7240677-1.6683311-0.7940292-2.4522858  c-0.0694275-0.7779732,0.0498352-1.5124702,0.348381-2.1736927c0.2962799-0.6562176,0.7692413-1.2405014,1.410141-1.7242794  C70.7347336,28.9509201,71.5375137,28.5691204,72.4991074,28.3138084z"></path><path d="M75.7218018,52.0628014c0.7743225-0.2614288,1.6177063-0.4312019,2.5072327-0.5079994  c0.8867264-0.0765572,1.8205948-0.0608368,2.7793198,0.0488548c0.9571838,0.1095161,1.9406891,0.3128815,2.9286804,0.6122551  c0.9880829,0.2994003,1.9824142,0.6953659,2.9614258,1.1906471c1.4746323,0.7462502,2.7796021,1.6496544,3.8794785,2.6478386  c1.1068497,1.0045128,2.0091934,2.1079178,2.6674652,3.2460098c0.6640625,1.1480904,1.0810242,2.3336906,1.2078476,3.4893761  c0.1281281,1.1675377-0.0397415,2.3056145-0.5489807,3.342823c-0.1716232,0.3492508-0.3764572,0.6759109-0.6116333,0.9794693  c-0.2359619,0.3045654-0.5024109,0.5857925-0.796402,0.8431549c-0.2948914,0.2581406-0.6174164,0.4922104-0.9645691,0.701683  c-0.348114,0.2100449-0.7208862,0.3952942-1.1152649,0.5552521c-0.7882233,0.3196945-1.6618729,0.5379257-2.5960007,0.6508636  c-0.9372864,0.1133118-1.9339905,0.1204453-2.9643707,0.0179749c-1.0321655-0.1026382-2.0963135-0.3150787-3.1660995-0.6401367  c-1.0696869-0.3250198-2.142952-0.7620087-3.1931458-1.3130569c-0.2846451-0.1491928-0.5622864-0.3042297-0.8328476-0.4646149  c-0.2703705-0.1602707-0.5336456-0.3258591-0.7897568-0.4962769c-0.2558975-0.1702728-0.5046082-0.3453445-0.7460861-0.5247116  c-0.2412491-0.1792068-0.475235-0.3626785-0.7019272-0.5499344l-11.6586266,4.4075546  c0.1110954,0.2403793,0.2129936,0.4834061,0.3052025,0.728775c0.0923843,0.2458191,0.1750412,0.4940109,0.2474747,0.744278  c0.0725784,0.2507401,0.134903,0.5035858,0.1864548,0.7582245c0.0516586,0.2551498,0.092514,0.5121155,0.1220551,0.7705994  c0.1080475,0.9583054,0.0541534,1.8759155-0.1450653,2.7377701c-0.2007446,0.868454-0.5489883,1.6800613-1.0274925,2.4190216  c-0.4819565,0.7443085-1.0957642,1.4144592-1.8233109,1.994072c-0.732235,0.5833588-1.5789642,1.07444-2.5210037,1.4565277  c-0.4748001,0.1925735-0.9735985,0.3573532-1.4938469,0.4922104c-0.5214424,0.13517-1.0642319,0.2402267-1.6257401,0.3130646  c-0.5625687,0.0729752-1.1436882,0.1135712-1.7406464,0.1197052c-0.5978203,0.0061417-1.2112427-0.0222855-1.8374901-0.087326  c-1.8766365-0.1952591-3.6844635-0.6997833-5.3407822-1.4435043c-1.6529388-0.7421951-3.1475945-1.7192917-4.4056358-2.8592529  c-1.2503624-1.1330032-2.2623863-2.4227219-2.9631462-3.7979355c-0.6942139-1.3623734-1.0809593-2.8047409-1.0927086-4.258667  c-0.0075035-0.9581528,0.1484261-1.860527,0.445343-2.6939392c0.2946701-0.8271103,0.7283211-1.5866241,1.2793198-2.2659836  c0.5471458-0.6746063,1.2103882-1.2706451,1.9690514-1.7759705c0.7540207-0.5022354,1.603054-0.9153633,2.5274315-1.2274246  c0.4623222-0.1560898,0.9437294-0.2869797,1.4418182-0.3911514c0.4970284-0.1039467,1.0108528-0.1813316,1.5391273-0.2306137  c0.5273552-0.0491982,1.0693245-0.0704193,1.6236305-0.0620995c0.5535736,0.0083046,1.1196976,0.0460739,1.6961441,0.1148911  c0.872879,0.1042137,1.7281876,0.2748375,2.5577164,0.5041389c0.8294334,0.2292747,1.6340408,0.5174751,2.4054222,0.8570442  c0.7721367,0.339901,1.511795,0.7316322,2.2103386,1.1677284c0.6999397,0.4369659,1.3592796,0.9188995,1.9691277,1.4383698  l11.6245308-4.2056007c-0.305481-0.6048546-0.5405807-1.2145615-0.7011414-1.8197403  c-0.1597672-0.6021805-0.2456818-1.1996765-0.2537537-1.7833862c-0.0080338-0.5806732,0.0609589-1.1475945,0.2108612-1.6919212  c0.1491089-0.5414429,0.3782654-1.0605087,0.6912994-1.5486069c0.2056427-0.3206444,0.4409332-0.6178017,0.7027283-0.8913918  c0.2609634-0.2727089,0.5483398-0.5220757,0.8590698-0.7480011c0.3098221-0.2252655,0.6429596-0.4272919,0.9963913-0.6059647  C74.9588242,52.3495636,75.3316345,52.1945305,75.7218018,52.0628014z"></path></svg>