<svg xmlns="http://www.w3.org/2000/svg" viewBox="0 0 1000 1000" width="1000" height="1000">
  <g id="sky-pebbles"><g transform="translate(0.1 446.9) rotate(-22.7)" opacity="0.8"><ellipse rx="4.9" ry="2.9" fill="#f0c47a"/><ellipse cx="-1" cy="-0.7" rx="2.7" ry="1.5" fill="#f5d9a9"/></g><g transform="translate(517.5 467.5) rotate(-10.9)" opacity="0.9"><ellipse rx="5.8" ry="3.5" fill="#e3a18a"/><ellipse cx="-1.2" cy="-0.9" rx="3.2" ry="1.8" fill="#edc2b3"/></g><g transform="translate(140.6 380.3) rotate(16.3)" opacity="0.7"><ellipse rx="6.5" ry="3.9" fill="#e3a18a"/><ellipse cx="-1.3" cy="-1" rx="3.6" ry="2" fill="#edc2b3"/></g><g transform="translate(217.6 735.3) rotate(2.7)" opacity="0.7"><ellipse rx="6.6" ry="3.9" fill="#c9a7d9"/><ellipse cx="-1.3" cy="-1" rx="3.6" ry="2" fill="#dcc6e6"/></g><g transform="translate(307.8 796.2) rotate(-15.3)" opacity="0.9"><ellipse rx="3.1" ry="1.8" fill="#c9a7d9"/><ellipse cx="-0.6" cy="-0.5" rx="1.7" ry="0.9" fill="#dcc6e6"/></g><g transform="translate(13.5 384.2) rotate(1.1)" opacity="0.8"><ellipse rx="8.3" ry="5" fill="#8fb8d8"/><ellipse cx="-1.7" cy="-1.2" rx="4.6" ry="2.5" fill="#b6d1e6"/></g><g transform="translate(959 320.5) rotate(-24.1)" opacity="0.9"><ellipse rx="8.4" ry="5" fill="#9fd0c8"/><ellipse cx="-1.7" cy="-1.3" rx="4.6" ry="2.5" fill="#c1e0db"/></g><g transform="translate(949.3 286.9) rotate(15)" opacity="0.9"><ellipse rx="4" ry="2.4" fill="#f0c47a"/><ellipse cx="-0.8" cy="-0.6" rx="2.2" ry="1.2" fill="#f5d9a9"/></g><g transform="translate(999.8 800.5) rotate(-12.2)" opacity="0.7"><ellipse rx="5.6" ry="3.4" fill="#9fd0c8"/><ellipse cx="-1.1" cy="-0.8" rx="3.1" ry="1.7" fill="#c1e0db"/></g><g transform="translate(951.9 831.6) rotate(18.7)" opacity="0.8"><ellipse rx="5.1" ry="3.1" fill="#8fb8d8"/><ellipse cx="-1" cy="-0.8" rx="2.8" ry="1.5" fill="#b6d1e6"/></g><g transform="translate(951.2 549.8) rotate(0.5)" opacity="0.8"><ellipse rx="7.1" ry="4.2" fill="#f0c47a"/><ellipse cx="-1.4" cy="-1.1" rx="3.9" ry="2.1" fill="#f5d9a9"/></g><g transform="translate(927.6 998.1) rotate(15.6)" opacity="0.7"><ellipse rx="5.6" ry="3.3" fill="#c9a7d9"/><ellipse cx="-1.1" cy="-0.8" rx="3.1" ry="1.7" fill="#dcc6e6"/></g><g transform="translate(47.9 52) rotate(-19.6)" opacity="0.8"><ellipse rx="8" ry="4.8" fill="#e3a18a"/><ellipse cx="-1.6" cy="-1.2" rx="4.4" ry="2.4" fill="#edc2b3"/></g><g transform="translate(376.7 472.3) rotate(-6)" opacity="0.8"><ellipse rx="3.6" ry="2.2" fill="#8fb8d8"/><ellipse cx="-0.7" cy="-0.5" rx="2" ry="1.1" fill="#b6d1e6"/></g><g transform="translate(550.7 925) rotate(24)" opacity="0.9"><ellipse rx="3.6" ry="2.2" fill="#f0c47a"/><ellipse cx="-0.7" cy="-0.5" rx="2" ry="1.1" fill="#f5d9a9"/></g><g transform="translate(565.1 369.5) rotate(7.3)" opacity="0.7"><ellipse rx="8.2" ry="4.9" fill="#c9a7d9"/><ellipse cx="-1.6" cy="-1.2" rx="4.5" ry="2.5" fill="#dcc6e6"/></g><g transform="translate(532.9 256.6) rotate(3.5)" opacity="0.7"><ellipse rx="8.8" ry="5.3" fill="#f0c47a"/><ellipse cx="-1.8" cy="-1.3" rx="4.8" ry="2.6" fill="#f5d9a9"/></g><g transform="translate(159.3 961.6) rotate(-10.6)" opacity="0.8"><ellipse rx="7.1" ry="4.3" fill="#f0c47a"/><ellipse cx="-1.4" cy="-1.1" rx="3.9" ry="2.1" fill="#f5d9a9"/></g><g transform="translate(878.9 483.3) rotate(-13.4)" opacity="0.9"><ellipse rx="6.1" ry="3.6" fill="#8fb8d8"/><ellipse cx="-1.2" cy="-0.9" rx="3.3" ry="1.8" fill="#b6d1e6"/></g><g transform="translate(873.3 262.4) rotate(-8)" opacity="0.8"><ellipse rx="7.5" ry="4.5" fill="#f0c47a"/><ellipse cx="-1.5" cy="-1.1" rx="4.1" ry="2.3" fill="#f5d9a9"/></g><g transform="translate(0.9 20.5) rotate(2.9)" opacity="0.9"><ellipse rx="3.2" ry="1.9" fill="#e3a18a"/><ellipse cx="-0.6" cy="-0.5" rx="1.8" ry="1" fill="#edc2b3"/></g><g transform="translate(316.9 639) rotate(-0.4)" opacity="0.7"><ellipse rx="8.9" ry="5.4" fill="#9fd0c8"/><ellipse cx="-1.8" cy="-1.3" rx="4.9" ry="2.7" fill="#c1e0db"/></g><g transform="translate(653.7 494.8) rotate(-11.8)" opacity="0.8"><ellipse rx="4.5" ry="2.7" fill="#c9a7d9"/><ellipse cx="-0.9" cy="-0.7" rx="2.5" ry="1.3" fill="#dcc6e6"/></g><g transform="translate(459.1 301.3) rotate(0.5)" opacity="0.8"><ellipse rx="5.9" ry="3.6" fill="#8fb8d8"/><ellipse cx="-1.2" cy="-0.9" rx="3.3" ry="1.8" fill="#b6d1e6"/></g><g transform="translate(816.4 496.4) rotate(-14.3)" opacity="0.8"><ellipse rx="6.4" ry="3.8" fill="#9fd0c8"/><ellipse cx="-1.3" cy="-1" rx="3.5" ry="1.9" fill="#c1e0db"/></g><g transform="translate(104.3 572) rotate(-15.1)" opacity="0.9"><ellipse rx="5.3" ry="3.2" fill="#c9a7d9"/><ellipse cx="-1.1" cy="-0.8" rx="2.9" ry="1.6" fill="#dcc6e6"/></g><g transform="translate(393.8 163.8) rotate(16.7)" opacity="0.7"><ellipse rx="8" ry="4.8" fill="#9fd0c8"/><ellipse cx="-1.6" cy="-1.2" rx="4.4" ry="2.4" fill="#c1e0db"/></g><g transform="translate(282.5 235.8) rotate(20.9)" opacity="0.8"><ellipse rx="4.9" ry="2.9" fill="#9fd0c8"/><ellipse cx="-1" cy="-0.7" rx="2.7" ry="1.5" fill="#c1e0db"/></g><g transform="translate(422.4 513.4) rotate(12.1)" opacity="0.9"><ellipse rx="5.7" ry="3.4" fill="#8fb8d8"/><ellipse cx="-1.1" cy="-0.8" rx="3.1" ry="1.7" fill="#b6d1e6"/></g><g transform="translate(781.7 18.7) rotate(-0.7)" opacity="0.7"><ellipse rx="7.7" ry="4.6" fill="#9fd0c8"/><ellipse cx="-1.5" cy="-1.2" rx="4.2" ry="2.3" fill="#c1e0db"/></g><g transform="translate(844.8 975.3) rotate(-12.6)" opacity="0.8"><ellipse rx="8.4" ry="5" fill="#8fb8d8"/><ellipse cx="-1.7" cy="-1.3" rx="4.6" ry="2.5" fill="#b6d1e6"/></g><g transform="translate(475.5 998.1) rotate(-1.5)" opacity="0.8"><ellipse rx="7.5" ry="4.5" fill="#8fb8d8"/><ellipse cx="-1.5" cy="-1.1" rx="4.1" ry="2.3" fill="#b6d1e6"/></g><g transform="translate(604.3 993.2) rotate(-20.8)" opacity="0.9"><ellipse rx="4.9" ry="2.9" fill="#c9a7d9"/><ellipse cx="-1" cy="-0.7" rx="2.7" ry="1.5" fill="#dcc6e6"/></g><g transform="translate(832.6 71.7) rotate(11.2)" opacity="0.8"><ellipse rx="6.5" ry="3.9" fill="#f0c47a"/><ellipse cx="-1.3" cy="-1" rx="3.6" ry="1.9" fill="#f5d9a9"/></g><g transform="translate(364 182.5) rotate(7.9)" opacity="0.8"><ellipse rx="8.5" ry="5.1" fill="#8fb8d8"/><ellipse cx="-1.7" cy="-1.3" rx="4.7" ry="2.5" fill="#b6d1e6"/></g><g transform="translate(343.9 642.2) rotate(-23.6)" opacity="0.9"><ellipse rx="8" ry="4.8" fill="#c9a7d9"/><ellipse cx="-1.6" cy="-1.2" rx="4.4" ry="2.4" fill="#dcc6e6"/></g><g transform="translate(807.9 771.9) rotate(-14.5)" opacity="0.9"><ellipse rx="4" ry="2.4" fill="#9fd0c8"/><ellipse cx="-0.8" cy="-0.6" rx="2.2" ry="1.2" fill="#c1e0db"/></g><g transform="translate(96.6 717.1) rotate(-6.1)" opacity="0.8"><ellipse rx="8.1" ry="4.9" fill="#e3a18a"/><ellipse cx="-1.6" cy="-1.2" rx="4.4" ry="2.4" fill="#edc2b3"/></g><g transform="translate(195.1 83) rotate(14.5)" opacity="0.8"><ellipse rx="6.1" ry="3.7" fill="#f0c47a"/><ellipse cx="-1.2" cy="-0.9" rx="3.4" ry="1.8" fill="#f5d9a9"/></g><g transform="translate(953.8 883) rotate(20.3)" opacity="0.8"><ellipse rx="5.2" ry="3.1" fill="#c9a7d9"/><ellipse cx="-1" cy="-0.8" rx="2.9" ry="1.6" fill="#dcc6e6"/></g><g transform="translate(696.5 837) rotate(18.7)" opacity="0.7"><ellipse rx="3.9" ry="2.3" fill="#8fb8d8"/><ellipse cx="-0.8" cy="-0.6" rx="2.1" ry="1.2" fill="#b6d1e6"/></g><g transform="translate(990.3 689.6) rotate(14)" opacity="0.7"><ellipse rx="8.6" ry="5.2" fill="#8fb8d8"/><ellipse cx="-1.7" cy="-1.3" rx="4.7" ry="2.6" fill="#b6d1e6"/></g><g transform="translate(506.9 0.7) rotate(4.7)" opacity="0.8"><ellipse rx="6.1" ry="3.6" fill="#c9a7d9"/><ellipse cx="-1.2" cy="-0.9" rx="3.3" ry="1.8" fill="#dcc6e6"/></g><g transform="translate(257.9 200.6) rotate(-19.2)" opacity="0.9"><ellipse rx="7.8" ry="4.7" fill="#8fb8d8"/><ellipse cx="-1.6" cy="-1.2" rx="4.3" ry="2.3" fill="#b6d1e6"/></g><g transform="translate(404.1 925.3) rotate(-7.5)" opacity="0.7"><ellipse rx="5.1" ry="3.1" fill="#f0c47a"/><ellipse cx="-1" cy="-0.8" rx="2.8" ry="1.5" fill="#f5d9a9"/></g><g transform="translate(473.8 423) rotate(23.1)" opacity="0.7"><ellipse rx="4.7" ry="2.8" fill="#9fd0c8"/><ellipse cx="-0.9" cy="-0.7" rx="2.6" ry="1.4" fill="#c1e0db"/></g><g transform="translate(545.5 622.5) rotate(-19.8)" opacity="0.7"><ellipse rx="6.9" ry="4.1" fill="#8fb8d8"/><ellipse cx="-1.4" cy="-1" rx="3.8" ry="2.1" fill="#b6d1e6"/></g><g transform="translate(110.1 815.6) rotate(-24.2)" opacity="0.8"><ellipse rx="7.1" ry="4.3" fill="#c9a7d9"/><ellipse cx="-1.4" cy="-1.1" rx="3.9" ry="2.1" fill="#dcc6e6"/></g><g transform="translate(611.1 945.7) rotate(11.8)" opacity="0.9"><ellipse rx="3.7" ry="2.2" fill="#f0c47a"/><ellipse cx="-0.7" cy="-0.6" rx="2" ry="1.1" fill="#f5d9a9"/></g><g transform="translate(569.6 118) rotate(24.1)" opacity="0.9"><ellipse rx="5.5" ry="3.3" fill="#9fd0c8"/><ellipse cx="-1.1" cy="-0.8" rx="3" ry="1.6" fill="#c1e0db"/></g><g transform="translate(658.7 282.3) rotate(23.4)" opacity="0.8"><ellipse rx="5.2" ry="3.1" fill="#9fd0c8"/><ellipse cx="-1" cy="-0.8" rx="2.9" ry="1.6" fill="#c1e0db"/></g><g transform="translate(497.1 506.6) rotate(-10.4)" opacity="0.9"><ellipse rx="7.2" ry="4.3" fill="#e3a18a"/><ellipse cx="-1.4" cy="-1.1" rx="4" ry="2.2" fill="#edc2b3"/></g><g transform="translate(93 467.9) rotate(11.6)" opacity="0.9"><ellipse rx="6.8" ry="4.1" fill="#c9a7d9"/><ellipse cx="-1.4" cy="-1" rx="3.7" ry="2" fill="#dcc6e6"/></g><g transform="translate(338.6 462.5) rotate(-18.7)" opacity="0.8"><ellipse rx="8.7" ry="5.2" fill="#8fb8d8"/><ellipse cx="-1.7" cy="-1.3" rx="4.8" ry="2.6" fill="#b6d1e6"/></g><g transform="translate(488.7 814) rotate(-1.5)" opacity="0.9"><ellipse rx="5.5" ry="3.3" fill="#9fd0c8"/><ellipse cx="-1.1" cy="-0.8" rx="3" ry="1.7" fill="#c1e0db"/></g><g transform="translate(847.3 72.5) rotate(20.8)" opacity="0.7"><ellipse rx="4.9" ry="3" fill="#e3a18a"/><ellipse cx="-1" cy="-0.7" rx="2.7" ry="1.5" fill="#edc2b3"/></g><g transform="translate(72.2 860.9) rotate(14.7)" opacity="0.8"><ellipse rx="3.4" ry="2" fill="#e3a18a"/><ellipse cx="-0.7" cy="-0.5" rx="1.9" ry="1" fill="#edc2b3"/></g><g transform="translate(653.3 14.7) rotate(-5.4)" opacity="0.8"><ellipse rx="8.6" ry="5.1" fill="#8fb8d8"/><ellipse cx="-1.7" cy="-1.3" rx="4.7" ry="2.6" fill="#b6d1e6"/></g><g transform="translate(537.2 64.8) rotate(-11.3)" opacity="0.8"><ellipse rx="7.1" ry="4.3" fill="#c9a7d9"/><ellipse cx="-1.4" cy="-1.1" rx="3.9" ry="2.1" fill="#dcc6e6"/></g><g transform="translate(851.5 654.3) rotate(14.1)" opacity="0.9"><ellipse rx="5.2" ry="3.1" fill="#f0c47a"/><ellipse cx="-1" cy="-0.8" rx="2.9" ry="1.6" fill="#f5d9a9"/></g><g transform="translate(121.6 164.5) rotate(-21.4)" opacity="0.7"><ellipse rx="3.1" ry="1.9" fill="#8fb8d8"/><ellipse cx="-0.6" cy="-0.5" rx="1.7" ry="0.9" fill="#b6d1e6"/></g><g transform="translate(932.7 671) rotate(-10.8)" opacity="0.7"><ellipse rx="7.3" ry="4.4" fill="#9fd0c8"/><ellipse cx="-1.5" cy="-1.1" rx="4" ry="2.2" fill="#c1e0db"/></g><g transform="translate(988.1 242.9) rotate(13.8)" opacity="0.9"><ellipse rx="7.6" ry="4.6" fill="#9fd0c8"/><ellipse cx="-1.5" cy="-1.1" rx="4.2" ry="2.3" fill="#c1e0db"/></g><g transform="translate(406.6 268.8) rotate(7.6)" opacity="0.7"><ellipse rx="8.4" ry="5.1" fill="#8fb8d8"/><ellipse cx="-1.7" cy="-1.3" rx="4.6" ry="2.5" fill="#b6d1e6"/></g><g transform="translate(883 46.8) rotate(19)" opacity="0.9"><ellipse rx="5.7" ry="3.4" fill="#9fd0c8"/><ellipse cx="-1.1" cy="-0.9" rx="3.1" ry="1.7" fill="#c1e0db"/></g><g transform="translate(612.9 213.5) rotate(-21.5)" opacity="0.9"><ellipse rx="7.8" ry="4.7" fill="#c9a7d9"/><ellipse cx="-1.6" cy="-1.2" rx="4.3" ry="2.3" fill="#dcc6e6"/></g><g transform="translate(735.3 984.2) rotate(-6.3)" opacity="0.9"><ellipse rx="4.7" ry="2.8" fill="#e3a18a"/><ellipse cx="-0.9" cy="-0.7" rx="2.6" ry="1.4" fill="#edc2b3"/></g><g transform="translate(249.6 802.5) rotate(-20.8)" opacity="0.7"><ellipse rx="8.6" ry="5.1" fill="#f0c47a"/><ellipse cx="-1.7" cy="-1.3" rx="4.7" ry="2.6" fill="#f5d9a9"/></g><g transform="translate(547.1 411.9) rotate(-17.9)" opacity="0.8"><ellipse rx="3.6" ry="2.2" fill="#9fd0c8"/><ellipse cx="-0.7" cy="-0.5" rx="2" ry="1.1" fill="#c1e0db"/></g><g transform="translate(427.5 608.1) rotate(13.2)" opacity="0.7"><ellipse rx="7.7" ry="4.6" fill="#f0c47a"/><ellipse cx="-1.5" cy="-1.1" rx="4.2" ry="2.3" fill="#f5d9a9"/></g><g transform="translate(556.6 255.8) rotate(11)" opacity="0.8"><ellipse rx="3.2" ry="1.9" fill="#f0c47a"/><ellipse cx="-0.6" cy="-0.5" rx="1.7" ry="1" fill="#f5d9a9"/></g><g transform="translate(145.4 170.5) rotate(-7.2)" opacity="0.8"><ellipse rx="6.9" ry="4.1" fill="#c9a7d9"/><ellipse cx="-1.4" cy="-1" rx="3.8" ry="2.1" fill="#dcc6e6"/></g><g transform="translate(632.2 855.7) rotate(-24.1)" opacity="0.7"><ellipse rx="8.8" ry="5.3" fill="#c9a7d9"/><ellipse cx="-1.8" cy="-1.3" rx="4.8" ry="2.6" fill="#dcc6e6"/></g><g transform="translate(153.1 386.2) rotate(-18.6)" opacity="0.9"><ellipse rx="5" ry="3" fill="#c9a7d9"/><ellipse cx="-1" cy="-0.8" rx="2.8" ry="1.5" fill="#dcc6e6"/></g><g transform="translate(391.5 347.6) rotate(-21.4)" opacity="0.9"><ellipse rx="7.2" ry="4.3" fill="#f0c47a"/><ellipse cx="-1.4" cy="-1.1" rx="4" ry="2.2" fill="#f5d9a9"/></g><g transform="translate(683.7 385.3) rotate(-0.3)" opacity="0.7"><ellipse rx="3.5" ry="2.1" fill="#f0c47a"/><ellipse cx="-0.7" cy="-0.5" rx="1.9" ry="1" fill="#f5d9a9"/></g><g transform="translate(716.8 849.2) rotate(8.4)" opacity="0.9"><ellipse rx="7.6" ry="4.6" fill="#f0c47a"/><ellipse cx="-1.5" cy="-1.1" rx="4.2" ry="2.3" fill="#f5d9a9"/></g><g transform="translate(690.4 366.8) rotate(23.5)" opacity="0.7"><ellipse rx="6.9" ry="4.1" fill="#f0c47a"/><ellipse cx="-1.4" cy="-1" rx="3.8" ry="2.1" fill="#f5d9a9"/></g><g transform="translate(282.3 305.2) rotate(-24.2)" opacity="0.9"><ellipse rx="4.5" ry="2.7" fill="#8fb8d8"/><ellipse cx="-0.9" cy="-0.7" rx="2.5" ry="1.4" fill="#b6d1e6"/></g><g transform="translate(593 751) rotate(3.1)" opacity="0.7"><ellipse rx="8.4" ry="5.1" fill="#8fb8d8"/><ellipse cx="-1.7" cy="-1.3" rx="4.6" ry="2.5" fill="#b6d1e6"/></g><g transform="translate(360 706.8) rotate(19.2)" opacity="0.8"><ellipse rx="5" ry="3" fill="#c9a7d9"/><ellipse cx="-1" cy="-0.7" rx="2.7" ry="1.5" fill="#dcc6e6"/></g><g transform="translate(274.3 751.7) rotate(-2)" opacity="0.7"><ellipse rx="8.7" ry="5.2" fill="#c9a7d9"/><ellipse cx="-1.7" cy="-1.3" rx="4.8" ry="2.6" fill="#dcc6e6"/></g><g transform="translate(390.9 498.3) rotate(-5)" opacity="0.8"><ellipse rx="4.9" ry="3" fill="#c9a7d9"/><ellipse cx="-1" cy="-0.7" rx="2.7" ry="1.5" fill="#dcc6e6"/></g><g transform="translate(188.6 178.8) rotate(-20.7)" opacity="0.8"><ellipse rx="7.7" ry="4.6" fill="#c9a7d9"/><ellipse cx="-1.5" cy="-1.2" rx="4.2" ry="2.3" fill="#dcc6e6"/></g><g transform="translate(183.1 825.2) rotate(12.9)" opacity="0.7"><ellipse rx="4.1" ry="2.5" fill="#c9a7d9"/><ellipse cx="-0.8" cy="-0.6" rx="2.3" ry="1.2" fill="#dcc6e6"/></g><g transform="translate(374.4 440.7) rotate(16.6)" opacity="0.7"><ellipse rx="5" ry="3" fill="#8fb8d8"/><ellipse cx="-1" cy="-0.7" rx="2.7" ry="1.5" fill="#b6d1e6"/></g><g transform="translate(529 940.6) rotate(4.5)" opacity="0.9"><ellipse rx="5.8" ry="3.5" fill="#f0c47a"/><ellipse cx="-1.2" cy="-0.9" rx="3.2" ry="1.7" fill="#f5d9a9"/></g><g transform="translate(491.4 718.9) rotate(12.4)" opacity="0.8"><ellipse rx="8.2" ry="4.9" fill="#8fb8d8"/><ellipse cx="-1.6" cy="-1.2" rx="4.5" ry="2.5" fill="#b6d1e6"/></g><g transform="translate(905.2 176) rotate(19.3)" opacity="0.8"><ellipse rx="4.6" ry="2.7" fill="#8fb8d8"/><ellipse cx="-0.9" cy="-0.7" rx="2.5" ry="1.4" fill="#b6d1e6"/></g><g transform="translate(613.4 804.5) rotate(-6.9)" opacity="0.9"><ellipse rx="7.6" ry="4.6" fill="#9fd0c8"/><ellipse cx="-1.5" cy="-1.1" rx="4.2" ry="2.3" fill="#c1e0db"/></g></g>
</svg>
