<?xml version="1.0" encoding="UTF-8" standalone="no"?><!DOCTYPE svg PUBLIC "-//W3C//DTD SVG 1.1//EN" "http://www.w3.org/Graphics/SVG/1.1/DTD/svg11.dtd"><svg width="100%" height="100%" viewBox="0 0 5000 2167" version="1.1" xmlns="http://www.w3.org/2000/svg" xmlns:xlink="http://www.w3.org/1999/xlink" xml:space="preserve" xmlns:serif="http://www.serif.com/" style="fill-rule:evenodd;clip-rule:evenodd;stroke-linejoin:round;stroke-miterlimit:2;"><g transform="matrix(7.913,0,0,7.96869,-159.526,2002.47)"><g transform="matrix(288,0,0,288,0,0)"><path d="M0.381,-0.435c0,-0.009 -0.001,-0.017 -0.004,-0.026c-0.003,-0.008 -0.006,-0.016 -0.01,-0.023c-0.009,-0.016 -0.027,-0.024 -0.054,-0.024l-0.064,0c-0.027,0 -0.046,0.008 -0.055,0.024c-0.008,0.015 -0.012,0.032 -0.012,0.049l0,0.396c0,0.031 -0.018,0.047 -0.055,0.047c-0.038,-0 -0.057,-0.016 -0.057,-0.047l0,-0.405c0,-0.055 0.018,-0.095 0.054,-0.12c0.037,-0.025 0.072,-0.038 0.107,-0.038l0.101,0c0.015,0 0.032,0.003 0.051,0.009c0.019,0.006 0.037,0.015 0.054,0.028c0.017,-0.013 0.034,-0.022 0.053,-0.028c0.018,-0.006 0.035,-0.009 0.052,-0.009l0.1,0c0.035,0 0.071,0.013 0.106,0.038c0.037,0.025 0.055,0.065 0.055,0.12l0,0.405c0,0.031 -0.019,0.047 -0.056,0.047c-0.037,0 -0.056,-0.016 -0.056,-0.047l0,-0.396c0,-0.009 -0.001,-0.017 -0.003,-0.026c-0.002,-0.009 -0.006,-0.017 -0.011,-0.024l0.001,0.001c-0.005,-0.009 -0.012,-0.015 -0.02,-0.018c-0.008,-0.004 -0.02,-0.006 -0.035,-0.006l-0.063,0c-0.028,0 -0.046,0.008 -0.055,0.024c-0.009,0.015 -0.013,0.031 -0.013,0.049l0,0.396c0,0.031 -0.018,0.047 -0.055,0.047c-0.037,0 -0.056,-0.016 -0.056,-0.047l0,-0.396Z" style="fill:#79af43;fill-rule:nonzero;"/></g><g transform="matrix(288,0,0,288,245.952,0)"><path d="M0.184,-0.042c0,0.032 -0.018,0.048 -0.055,0.048c-0.037,0 -0.056,-0.016 -0.056,-0.048l-0,-0.516c-0,-0.032 0.019,-0.048 0.056,-0.048c0.037,0 0.055,0.016 0.055,0.048l0,0.516Zm0.021,-0.69c0,0.021 -0.007,0.039 -0.022,0.054c-0.015,0.015 -0.033,0.022 -0.054,0.022c-0.021,0 -0.039,-0.007 -0.055,-0.022c-0.015,-0.015 -0.022,-0.033 -0.022,-0.054c0,-0.022 0.007,-0.04 0.022,-0.055c0.016,-0.015 0.034,-0.022 0.055,-0.022c0.021,0 0.039,0.007 0.054,0.022c0.015,0.015 0.022,0.033 0.022,0.055Z" style="fill:#79af43;fill-rule:nonzero;"/></g><g transform="matrix(288,0,0,288,318.528,0)"><path d="M0.391,-0.602c0.017,0 0.035,0.004 0.053,0.011c0.019,0.007 0.037,0.017 0.054,0.028l-0.001,-0c0.017,0.013 0.031,0.029 0.04,0.049c0.009,0.021 0.014,0.044 0.014,0.071l0,0.284c0,0.055 -0.018,0.095 -0.054,0.121c-0.035,0.025 -0.071,0.038 -0.106,0.038l-0.16,-0c-0.017,-0 -0.035,-0.003 -0.053,-0.009c-0.018,-0.006 -0.036,-0.016 -0.053,-0.029c-0.036,-0.025 -0.054,-0.066 -0.054,-0.121l-0,-0.284c-0,-0.027 0.005,-0.05 0.014,-0.071c0.009,-0.02 0.023,-0.036 0.04,-0.049l-0.001,-0c0.017,-0.011 0.034,-0.021 0.053,-0.028c0.019,-0.007 0.037,-0.011 0.054,-0.011l0.16,0Zm-0.018,0.508c0.025,-0 0.042,-0.007 0.052,-0.021c0.011,-0.014 0.016,-0.029 0.016,-0.045l-0,-0.282c-0,-0.017 -0.005,-0.032 -0.016,-0.045c-0.01,-0.014 -0.027,-0.021 -0.052,-0.021l-0.124,0c-0.025,0 -0.042,0.007 -0.053,0.021c-0.01,0.013 -0.015,0.028 -0.015,0.045l-0,0.282c-0,0.016 0.005,0.031 0.015,0.045c0.011,0.014 0.028,0.021 0.053,0.021l0.124,-0Z" style="fill:#fff;fill-rule:nonzero;"/></g><g transform="matrix(288,0,0,288,493.056,0)"><path d="M0.181,-0.042c-0,0.032 -0.018,0.048 -0.055,0.048c-0.037,0 -0.055,-0.016 -0.055,-0.048l0,-0.402c0,-0.027 0.004,-0.051 0.013,-0.071c0.009,-0.02 0.022,-0.036 0.041,-0.049c0.035,-0.025 0.071,-0.038 0.106,-0.038l0.161,0c0.034,0 0.069,0.013 0.106,0.038c0.036,0.025 0.054,0.065 0.054,0.12l0,0.402c0,0.032 -0.018,0.048 -0.055,0.048c-0.037,0 -0.055,-0.016 -0.055,-0.048l-0,-0.393c-0,-0.017 -0.005,-0.034 -0.016,-0.05l0.001,0.001c-0.009,-0.016 -0.026,-0.024 -0.053,-0.024l-0.125,0c-0.027,0 -0.045,0.008 -0.054,0.024c-0.009,0.014 -0.014,0.03 -0.014,0.049l-0,0.393Z" style="fill:#fff;fill-rule:nonzero;"/></g></g></svg>