<svg xmlns="http://www.w3.org/2000/svg" viewBox="0 0 260 320" width="260" height="320">
<g id="horned-ghost">
  <path id="horned-ghost-base" fill="#f6f2ef" fill-rule="evenodd" d="M99.4 91.2C99.1 91.4 98.3 93.5 98.1 95.0C97.9 96.5 98.0 98.3 98.0 100.0C98.0 101.7 97.8 103.5 98.0 105.0C98.2 106.5 98.2 108.2 99.2 109.0C100.2 109.8 102.4 109.6 104.0 109.9C105.6 110.2 107.3 110.5 109.0 110.9C110.7 111.4 112.3 111.9 114.0 112.5C115.7 113.2 117.3 113.9 119.0 114.7C120.7 115.5 122.3 116.3 124.0 117.4C125.7 118.4 127.3 119.7 129.0 121.0C130.7 122.2 132.4 123.6 134.0 125.1C135.6 126.6 137.2 128.4 138.5 130.0C139.9 131.6 141.0 133.3 142.1 135.0C143.3 136.7 144.4 138.3 145.3 140.0C146.2 141.7 146.9 143.3 147.6 145.0C148.4 146.7 149.0 148.3 149.6 150.0C150.2 151.7 150.7 153.3 151.0 155.0C151.4 156.7 151.7 158.3 151.9 160.0C152.2 161.7 152.4 163.3 152.5 165.0C152.6 166.7 152.6 168.3 152.5 170.0C152.4 171.7 152.3 173.3 152.1 175.0C152.0 176.7 151.7 178.3 151.4 180.0C151.1 181.7 150.6 183.3 150.1 185.0C149.6 186.7 149.0 188.3 148.3 190.0C147.6 191.7 146.9 193.3 146.0 195.0C145.1 196.7 144.0 198.3 142.9 200.0C141.7 201.7 140.4 203.3 138.9 205.0C137.5 206.7 135.7 208.5 134.0 210.0C132.3 211.4 130.7 212.7 129.0 213.9C127.3 215.0 125.7 216.0 124.0 216.9C122.3 217.7 120.7 218.5 119.0 219.1C117.3 219.8 115.7 220.3 114.0 220.8C112.3 221.3 110.7 221.8 109.0 222.1C107.3 222.4 105.6 222.5 104.0 222.7C102.4 222.9 100.2 222.5 99.2 223.2C98.2 223.9 98.2 225.5 98.0 227.0C97.8 228.5 97.8 230.5 98.0 232.0C98.2 233.5 98.2 235.1 99.2 235.8C100.2 236.4 102.4 236.0 104.0 236.0C105.6 236.0 107.3 236.0 109.0 236.0C110.7 236.0 112.3 236.0 114.0 236.0C115.7 236.0 117.3 236.0 119.0 236.0C120.7 236.0 122.3 236.0 124.0 236.0C125.7 236.0 127.3 236.0 129.0 236.0C130.7 236.0 132.3 236.0 134.0 236.0C135.7 236.0 137.3 236.0 139.0 236.0C140.7 236.0 142.3 236.0 144.0 236.0C145.7 236.0 147.3 236.0 149.0 236.0C150.7 236.0 152.3 236.0 154.0 236.0C155.7 236.0 157.3 236.0 159.0 236.0C160.7 236.0 162.3 236.0 164.0 236.0C165.7 236.0 167.3 236.0 169.0 236.0C170.7 236.0 172.3 236.0 174.0 236.0C175.7 236.0 177.3 236.0 179.0 236.0C180.7 236.0 182.3 236.0 184.0 236.0C185.7 236.0 187.3 236.0 189.0 236.0C190.7 236.0 192.3 236.0 194.0 236.0C195.7 236.0 197.3 236.0 199.0 236.0C200.7 236.0 202.3 236.0 204.0 236.0C205.7 236.0 207.3 236.0 209.0 236.0C210.7 236.0 212.8 236.4 213.9 235.9C215.1 235.4 215.6 234.3 216.0 233.0C216.3 231.7 216.0 229.7 216.0 228.0C216.0 226.3 216.0 224.7 216.0 223.0C216.0 221.3 216.1 219.3 216.0 218.0C215.9 216.7 215.6 215.1 215.2 215.4C214.8 215.8 213.8 218.4 213.6 220.0C213.5 221.6 214.9 223.5 214.3 225.0C213.7 226.5 211.5 228.1 210.0 228.9C208.5 229.6 206.6 230.1 205.1 229.6C203.5 229.0 202.1 227.0 200.8 225.5C199.5 224.0 198.5 222.2 197.3 220.5C196.2 218.8 194.9 217.2 193.9 215.5C192.8 213.8 191.8 212.2 190.8 210.5C189.8 208.8 188.9 207.2 187.9 205.5C186.9 203.8 185.4 202.2 184.7 200.5C184.0 198.8 184.2 197.2 183.8 195.5C183.3 193.8 182.6 192.2 182.0 190.5C181.5 188.8 181.0 187.2 180.5 185.5C180.0 183.8 179.5 182.2 179.1 180.5C178.6 178.8 178.3 177.2 177.9 175.5C177.5 173.8 177.1 172.2 176.7 170.5C176.4 168.8 176.1 167.2 175.8 165.5C175.4 163.8 175.1 162.2 174.7 160.5C174.3 158.8 174.0 157.2 173.5 155.5C173.0 153.8 172.4 152.2 171.8 150.5C171.2 148.8 170.4 147.2 169.8 145.5C169.1 143.8 168.7 142.2 168.1 140.5C167.5 138.8 166.8 137.2 166.2 135.5C165.6 133.8 165.1 132.2 164.6 130.5C164.1 128.8 163.6 127.2 163.2 125.5C162.7 123.8 162.1 122.2 161.9 120.5C161.7 118.8 162.1 117.2 162.1 115.5C162.2 113.8 162.2 112.2 162.2 110.5C162.3 108.8 162.4 107.2 162.4 105.5C162.5 103.8 163.0 101.7 162.5 100.6C162.1 99.4 161.2 98.9 160.0 98.5C158.7 98.2 156.7 98.5 155.0 98.5C153.3 98.5 151.7 98.5 150.0 98.5C148.3 98.5 146.7 98.5 145.0 98.5C143.3 98.5 141.7 98.5 140.0 98.5C138.3 98.5 136.7 98.5 135.0 98.5C133.3 98.5 131.7 98.5 130.0 98.5C128.3 98.5 126.7 98.5 125.0 98.5C123.3 98.5 121.7 98.5 120.0 98.5C118.3 98.5 116.7 98.5 115.0 98.5C113.3 98.5 111.7 98.5 110.0 98.5C108.3 98.5 106.6 98.6 105.0 98.5C103.4 98.4 101.3 98.7 100.4 97.9C99.5 97.1 99.7 94.6 99.5 93.5C99.3 92.4 99.6 90.9 99.4 91.2Z"/>
  <path id="horned-ghost-tone-1" fill="#b0b3bc" fill-rule="evenodd" d="M99.4 91.2C99.1 91.2 98.3 93.5 98.1 95.0C97.9 96.5 97.7 98.7 98.0 100.0C98.3 101.3 98.9 102.2 100.1 103.0C101.2 103.8 103.3 104.1 105.0 104.7C106.7 105.4 108.3 106.2 110.0 106.9C111.7 107.7 113.3 108.3 115.0 109.1C116.7 109.8 118.6 110.4 120.0 111.5C121.4 112.6 122.2 114.1 123.5 115.5C124.7 116.9 126.0 118.4 127.5 119.8C129.0 121.2 130.9 122.4 132.5 123.8C134.1 125.2 135.9 126.9 137.4 128.5C138.8 130.1 139.9 131.8 141.1 133.5C142.2 135.2 143.4 136.8 144.4 138.5C145.4 140.2 146.2 141.8 147.0 143.5C147.8 145.2 148.4 146.8 149.0 148.5C149.6 150.2 150.2 151.8 150.7 153.5C151.1 155.2 151.4 156.8 151.7 158.5C152.0 160.2 152.2 161.8 152.3 163.5C152.5 165.2 152.5 166.8 152.5 168.5C152.5 170.2 152.5 171.8 152.3 173.5C152.2 175.2 152.0 176.8 151.7 178.5C151.4 180.2 151.0 181.8 150.6 183.5C150.1 185.2 149.5 186.8 148.9 188.5C148.3 190.2 147.6 191.8 146.7 193.5C145.9 195.2 145.0 196.8 143.9 198.5C142.8 200.2 141.6 201.8 140.2 203.5C138.9 205.2 137.1 206.9 135.5 208.5C133.9 210.1 132.2 211.6 130.5 212.9C128.8 214.1 127.2 215.1 125.5 216.1C123.8 217.0 122.2 217.8 120.5 218.5C118.8 219.2 117.2 219.8 115.5 220.4C113.8 220.9 112.2 221.4 110.5 221.8C108.8 222.1 107.2 222.3 105.5 222.5C103.8 222.8 101.8 222.5 100.5 223.0C99.3 223.5 98.4 224.3 98.0 225.5C97.6 226.8 97.9 228.9 98.0 230.5C98.1 232.1 97.6 234.2 98.4 235.1C99.1 236.0 101.0 235.9 102.5 236.0C104.0 236.1 105.8 236.0 107.5 236.0C109.2 236.0 110.8 236.0 112.5 236.0C114.2 236.0 115.8 236.0 117.5 236.0C119.2 236.0 120.8 236.0 122.5 236.0C124.2 236.0 125.8 236.0 127.5 236.0C129.2 236.0 130.8 236.0 132.5 236.0C134.2 236.0 135.8 236.0 137.5 236.0C139.2 236.0 140.8 236.0 142.5 236.0C144.2 236.0 145.8 236.0 147.5 236.0C149.2 236.0 150.8 236.0 152.5 236.0C154.2 236.0 155.8 236.0 157.5 236.0C159.2 236.0 160.8 236.0 162.5 236.0C164.2 236.0 165.8 236.0 167.5 236.0C169.2 236.0 170.8 236.0 172.5 236.0C174.2 236.0 175.8 236.0 177.5 236.0C179.2 236.0 180.8 236.0 182.5 236.0C184.2 236.0 185.8 236.0 187.5 236.0C189.2 236.0 190.8 236.0 192.5 236.0C194.2 236.0 195.8 236.0 197.5 236.0C199.2 236.0 200.8 236.0 202.5 236.0C204.2 236.0 205.8 236.0 207.5 236.0C209.2 236.0 211.1 236.3 212.5 236.0C213.9 235.7 215.3 235.5 215.9 234.4C216.5 233.3 216.0 231.1 216.0 229.5C216.0 227.9 216.0 226.2 216.0 224.5C216.0 222.8 216.0 221.0 216.0 219.5C216.0 218.0 216.2 215.4 215.8 215.2C215.4 215.1 213.7 217.1 213.5 218.5C213.3 219.9 215.0 221.9 214.6 223.5C214.3 225.1 212.8 227.0 211.5 228.1C210.1 229.1 208.1 230.0 206.5 229.8C204.9 229.7 203.4 228.3 202.0 227.0C200.6 225.7 199.5 223.7 198.3 222.0C197.1 220.3 196.0 218.7 194.9 217.0C193.8 215.3 192.7 213.7 191.7 212.0C190.7 210.3 189.9 208.7 188.8 207.0C187.8 205.3 186.1 203.7 185.4 202.0C184.6 200.3 184.6 198.7 184.1 197.0C183.7 195.3 183.1 193.7 182.5 192.0C182.0 190.3 181.4 188.7 180.9 187.0C180.4 185.3 179.9 183.7 179.4 182.0C179.0 180.3 178.7 178.7 178.3 177.0C177.9 175.3 177.4 173.7 177.1 172.0C176.7 170.3 176.4 168.7 176.1 167.0C175.7 165.3 175.4 163.7 175.0 162.0C174.6 160.3 174.4 158.7 173.9 157.0C173.5 155.3 172.9 153.7 172.3 152.0C171.7 150.3 170.9 148.7 170.3 147.0C169.8 145.3 169.4 143.7 168.7 142.0C168.1 140.3 167.3 138.7 166.7 137.0C166.1 135.3 165.5 133.7 165.0 132.0C164.5 130.3 164.0 128.7 163.6 127.0C163.1 125.3 162.6 123.7 162.3 122.0C162.0 120.3 161.8 118.7 161.8 117.0C161.8 115.3 162.3 113.7 162.4 112.0C162.5 110.3 162.3 108.7 162.3 107.0C162.3 105.3 162.7 103.4 162.5 102.0C162.4 100.6 162.4 99.2 161.3 98.6C160.3 98.0 158.1 98.5 156.5 98.5C154.9 98.5 153.2 98.5 151.5 98.5C149.8 98.5 148.2 98.5 146.5 98.5C144.8 98.5 143.2 98.5 141.5 98.5C139.8 98.5 138.2 98.5 136.5 98.5C134.8 98.5 133.2 98.5 131.5 98.5C129.8 98.5 128.2 98.5 126.5 98.5C124.8 98.5 123.2 98.5 121.5 98.5C119.8 98.5 118.2 98.5 116.5 98.5C114.8 98.5 113.2 98.5 111.5 98.5C109.8 98.5 108.2 98.5 106.5 98.5C104.8 98.5 102.7 99.0 101.6 98.4C100.4 97.8 99.9 96.2 99.5 95.0C99.1 93.8 99.6 91.2 99.4 91.2Z"/>
  <path id="horned-ghost-tone-2" fill="#767f97" fill-rule="evenodd" d="M215.6 215.2C215.3 215.2 214.4 216.2 214.0 217.0C213.7 217.8 213.4 219.2 213.6 220.0C213.8 220.8 214.8 221.8 215.2 221.8C215.6 221.8 215.8 220.8 216.0 220.0C216.1 219.2 216.1 217.8 216.0 217.0C215.9 216.2 216.0 215.2 215.6 215.2ZM150.4 186.3C149.4 186.9 148.9 189.0 148.1 190.5C147.3 192.0 146.6 193.8 145.7 195.5C144.8 197.2 143.7 198.8 142.5 200.5C141.3 202.2 140.0 203.8 138.5 205.5C137.0 207.2 135.2 209.0 133.5 210.4C131.8 211.9 130.2 213.1 128.5 214.2C126.8 215.3 125.2 216.3 123.5 217.1C121.8 218.0 120.2 218.7 118.5 219.3C116.8 220.0 115.2 220.5 113.5 221.0C111.8 221.5 110.2 221.9 108.5 222.2C106.8 222.5 105.1 222.6 103.5 222.8C101.9 223.0 99.8 222.6 98.9 223.4C98.0 224.2 98.1 226.0 98.0 227.5C97.9 229.0 97.7 231.1 98.0 232.5C98.3 233.9 98.5 235.3 99.6 235.9C100.7 236.5 102.9 236.0 104.5 236.0C106.1 236.0 107.8 236.0 109.5 236.0C111.2 236.0 112.8 236.0 114.5 236.0C116.2 236.0 117.8 236.0 119.5 236.0C121.2 236.0 122.8 236.0 124.5 236.0C126.2 236.0 127.8 236.0 129.5 236.0C131.2 236.0 132.8 236.0 134.5 236.0C136.2 236.0 137.8 236.0 139.5 236.0C141.2 236.0 142.8 236.0 144.5 236.0C146.2 236.0 147.8 236.0 149.5 236.0C151.2 236.0 152.8 236.0 154.5 236.0C156.2 236.0 157.8 236.0 159.5 236.0C161.2 236.0 162.8 236.0 164.5 236.0C166.2 236.0 167.8 236.0 169.5 236.0C171.2 236.0 172.8 236.0 174.5 236.0C176.2 236.0 177.8 236.0 179.5 236.0C181.2 236.0 182.8 236.0 184.5 236.0C186.2 236.0 187.8 236.0 189.5 236.0C191.2 236.0 192.8 236.0 194.5 236.0C196.2 236.0 197.8 236.0 199.5 236.0C201.2 236.0 202.8 236.0 204.5 236.0C206.2 236.0 207.9 236.0 209.5 236.0C211.1 236.0 213.3 236.5 214.4 235.9C215.5 235.3 216.1 233.2 216.0 232.5C215.8 231.9 214.8 231.8 213.6 232.1C212.5 232.4 210.3 234.6 209.1 234.4C207.8 234.1 207.3 231.7 206.1 230.5C205.0 229.3 203.3 228.4 202.0 227.0C200.7 225.6 199.5 223.7 198.3 222.0C197.1 220.3 196.0 218.7 194.9 217.0C193.8 215.3 192.7 213.7 191.7 212.0C190.7 210.3 190.0 208.6 188.8 207.0C187.7 205.4 186.4 202.8 185.0 202.6C183.6 202.3 181.9 204.2 180.3 205.5C178.7 206.8 177.1 208.6 175.5 210.2C173.9 211.7 172.2 213.6 170.5 214.7C168.8 215.9 167.2 216.9 165.5 217.2C163.8 217.6 162.2 216.9 160.5 217.0C158.8 217.1 156.9 218.2 155.5 218.0C154.1 217.8 152.7 217.1 152.2 216.0C151.6 214.8 152.0 212.7 152.2 211.0C152.3 209.3 152.6 207.7 153.0 206.0C153.4 204.3 153.8 202.7 154.5 201.0C155.1 199.3 156.2 197.7 156.8 196.0C157.3 194.3 158.0 192.5 157.6 191.0C157.1 189.5 155.2 187.8 154.0 187.0C152.8 186.2 151.4 185.7 150.4 186.3ZM99.4 91.2C99.1 91.3 98.3 93.5 98.1 95.0C97.9 96.5 97.7 98.7 98.0 100.0C98.3 101.3 98.9 102.2 100.1 103.0C101.2 103.8 103.3 104.1 105.0 104.7C106.7 105.4 108.3 106.2 110.0 106.9C111.7 107.7 113.3 108.3 115.0 109.1C116.7 109.8 118.6 110.4 120.0 111.5C121.4 112.6 122.2 114.1 123.5 115.5C124.7 116.9 126.0 118.4 127.5 119.8C129.0 121.2 130.9 122.4 132.5 123.8C134.1 125.2 135.9 126.9 137.4 128.5C138.8 130.1 139.9 131.8 141.1 133.5C142.2 135.2 143.4 136.8 144.4 138.5C145.4 140.2 146.2 141.8 147.0 143.5C147.8 145.2 148.4 146.8 149.0 148.5C149.6 150.2 150.2 151.8 150.7 153.5C151.1 155.2 151.4 156.8 151.7 158.5C152.0 160.2 151.8 162.3 152.4 163.4C153.0 164.5 154.2 165.0 155.5 165.0C156.9 165.0 158.9 164.5 160.5 163.6C162.1 162.6 164.1 161.0 164.9 159.5C165.8 158.0 165.7 156.2 165.8 154.5C165.8 152.8 164.8 151.0 165.2 149.5C165.6 148.1 167.7 147.1 168.3 145.8C168.8 144.5 168.8 143.0 168.6 141.5C168.3 139.9 167.1 138.2 166.5 136.5C165.9 134.8 165.4 133.2 164.9 131.5C164.4 129.8 163.9 128.2 163.4 126.5C163.0 124.8 162.4 123.2 162.1 121.5C161.9 119.8 161.9 118.2 161.9 116.5C161.9 114.8 162.3 113.2 162.3 111.5C162.4 109.8 162.3 108.2 162.3 106.5C162.4 104.8 162.8 102.8 162.5 101.5C162.3 100.2 162.0 99.1 160.9 98.6C159.8 98.1 157.7 98.5 156.0 98.5C154.3 98.5 152.7 98.5 151.0 98.5C149.3 98.5 147.7 98.5 146.0 98.5C144.3 98.5 142.7 98.5 141.0 98.5C139.3 98.5 137.7 98.5 136.0 98.5C134.3 98.5 132.7 98.5 131.0 98.5C129.3 98.5 127.7 98.5 126.0 98.5C124.3 98.5 122.7 98.5 121.0 98.5C119.3 98.5 117.7 98.5 116.0 98.5C114.3 98.5 112.7 98.5 111.0 98.5C109.3 98.5 107.6 98.5 106.0 98.5C104.4 98.5 102.2 98.9 101.1 98.3C100.0 97.6 99.8 95.7 99.5 94.5C99.2 93.3 99.6 91.1 99.4 91.2Z"/>
  <path id="horned-ghost-tone-3" fill="#9899a8" fill-rule="evenodd" d="M215.6 215.2C215.3 215.2 214.4 216.2 214.0 217.0C213.7 217.8 213.4 219.2 213.6 220.0C213.8 220.8 214.8 221.8 215.2 221.8C215.6 221.8 215.8 220.8 216.0 220.0C216.1 219.2 216.1 217.8 216.0 217.0C215.9 216.2 216.0 215.2 215.6 215.2ZM150.4 186.3C149.4 186.9 148.9 189.0 148.1 190.5C147.3 192.0 146.6 193.8 145.7 195.5C144.8 197.2 143.7 198.8 142.5 200.5C141.3 202.2 140.0 203.8 138.5 205.5C137.0 207.2 135.2 209.0 133.5 210.4C131.8 211.9 130.2 213.1 128.5 214.2C126.8 215.3 125.2 216.3 123.5 217.1C121.8 218.0 120.2 218.7 118.5 219.3C116.8 220.0 115.2 220.5 113.5 221.0C111.8 221.5 110.2 221.9 108.5 222.2C106.8 222.5 105.1 222.6 103.5 222.8C101.9 223.0 99.8 222.6 98.9 223.4C98.0 224.2 98.1 226.0 98.0 227.5C97.9 229.0 97.8 231.2 98.0 232.5C98.2 233.8 98.5 235.4 99.5 235.3C100.5 235.1 102.4 232.6 104.0 231.6C105.6 230.7 107.3 230.0 109.0 229.5C110.7 229.0 112.3 228.8 114.0 228.6C115.7 228.5 117.3 228.9 119.0 228.7C120.7 228.5 122.3 227.8 124.0 227.3C125.7 226.7 127.3 225.9 129.0 225.4C130.7 224.9 132.5 223.9 134.0 224.2C135.5 224.5 137.3 225.7 138.2 227.0C139.1 228.3 139.0 230.5 139.3 232.0C139.5 233.5 138.9 235.1 139.8 235.8C140.7 236.4 142.9 236.0 144.5 236.0C146.1 236.0 147.8 236.0 149.5 236.0C151.2 236.0 152.8 236.0 154.5 236.0C156.2 236.0 157.8 236.0 159.5 236.0C161.2 236.0 162.8 236.0 164.5 236.0C166.2 236.0 167.8 236.0 169.5 236.0C171.2 236.0 172.8 236.0 174.5 236.0C176.2 236.0 177.8 236.0 179.5 236.0C181.2 236.0 182.8 236.0 184.5 236.0C186.2 236.0 187.8 236.0 189.5 236.0C191.2 236.0 192.8 236.0 194.5 236.0C196.2 236.0 197.8 236.0 199.5 236.0C201.2 236.0 202.8 236.0 204.5 236.0C206.2 236.0 207.9 236.0 209.5 236.0C211.1 236.0 213.3 236.5 214.4 235.9C215.5 235.3 216.1 233.2 216.0 232.5C215.8 231.9 214.8 231.8 213.6 232.1C212.5 232.4 210.3 234.6 209.1 234.4C207.8 234.1 207.3 231.7 206.1 230.5C205.0 229.3 203.3 228.4 202.0 227.0C200.7 225.6 199.5 223.7 198.3 222.0C197.1 220.3 196.0 218.7 194.9 217.0C193.8 215.3 192.7 213.7 191.7 212.0C190.7 210.3 190.0 208.6 188.8 207.0C187.7 205.4 186.4 202.8 185.0 202.6C183.6 202.3 181.9 204.2 180.3 205.5C178.7 206.8 177.1 208.6 175.5 210.2C173.9 211.7 172.2 213.6 170.5 214.7C168.8 215.9 167.2 216.9 165.5 217.2C163.8 217.6 162.2 216.9 160.5 217.0C158.8 217.1 156.9 218.2 155.5 218.0C154.1 217.8 152.7 217.1 152.2 216.0C151.6 214.8 152.0 212.7 152.2 211.0C152.3 209.3 152.6 207.7 153.0 206.0C153.4 204.3 153.8 202.7 154.5 201.0C155.1 199.3 156.2 197.7 156.8 196.0C157.3 194.3 158.0 192.5 157.6 191.0C157.1 189.5 155.2 187.8 154.0 187.0C152.8 186.2 151.4 185.7 150.4 186.3ZM99.4 91.2C99.1 91.8 98.3 93.5 98.1 95.0C97.9 96.5 97.7 98.7 98.0 100.0C98.3 101.3 98.9 102.2 100.1 103.0C101.2 103.8 103.3 104.1 105.0 104.7C106.7 105.4 108.3 106.2 110.0 106.9C111.7 107.7 113.3 108.3 115.0 109.1C116.7 109.8 118.6 110.4 120.0 111.5C121.4 112.6 122.2 114.1 123.5 115.5C124.7 116.9 126.0 118.4 127.5 119.8C129.0 121.2 130.9 122.4 132.5 123.8C134.1 125.2 135.9 126.9 137.4 128.5C138.8 130.1 139.9 131.8 141.1 133.5C142.2 135.2 143.4 136.8 144.4 138.5C145.4 140.2 146.2 141.8 147.0 143.5C147.8 145.2 148.4 146.8 149.0 148.5C149.6 150.2 150.2 151.8 150.7 153.5C151.1 155.2 151.4 156.8 151.7 158.5C152.0 160.2 151.8 162.3 152.4 163.4C153.0 164.5 154.2 165.0 155.5 165.0C156.9 165.0 158.9 164.5 160.5 163.6C162.1 162.6 164.1 161.0 164.9 159.5C165.8 158.0 165.7 156.2 165.8 154.5C165.8 152.8 164.8 151.0 165.2 149.5C165.6 148.1 167.7 147.1 168.3 145.8C168.8 144.5 168.8 143.0 168.6 141.5C168.3 139.9 167.1 138.2 166.5 136.5C165.9 134.8 165.4 133.2 164.9 131.5C164.4 129.8 163.9 128.2 163.4 126.5C163.0 124.8 162.4 123.2 162.1 121.5C161.9 119.8 161.9 118.2 161.9 116.5C161.9 114.8 162.8 112.6 162.2 111.6C161.7 110.6 160.0 110.5 158.5 110.6C157.0 110.7 155.2 111.6 153.5 111.9C151.8 112.3 150.2 112.8 148.5 112.7C146.8 112.7 145.2 112.0 143.5 111.6C141.8 111.2 140.2 110.9 138.5 110.4C136.8 110.0 135.2 109.4 133.5 108.8C131.8 108.2 129.8 107.8 128.5 106.8C127.2 105.9 125.7 104.1 125.9 103.1C126.2 102.1 128.5 101.1 130.0 100.8C131.5 100.4 133.3 100.7 135.0 100.9C136.7 101.1 138.3 101.6 140.0 101.9C141.7 102.2 143.3 102.6 145.0 102.8C146.7 102.9 148.3 102.9 150.0 102.8C151.7 102.7 153.3 102.3 155.0 102.0C156.7 101.7 158.8 101.7 160.0 101.2C161.1 100.7 162.4 99.3 162.0 98.9C161.6 98.4 159.1 98.6 157.5 98.5C155.9 98.4 154.2 98.5 152.5 98.5C150.8 98.5 149.2 98.5 147.5 98.5C145.8 98.5 144.2 98.5 142.5 98.5C140.8 98.5 139.2 98.5 137.5 98.5C135.8 98.5 134.2 98.5 132.5 98.5C130.8 98.5 129.2 98.5 127.5 98.5C125.8 98.5 124.2 98.5 122.5 98.5C120.8 98.5 119.2 98.5 117.5 98.5C115.8 98.5 114.2 98.5 112.5 98.5C110.8 98.5 109.2 98.5 107.5 98.5C105.8 98.5 103.8 98.9 102.5 98.5C101.2 98.1 100.1 97.1 99.6 96.0C99.1 94.8 99.5 92.2 99.5 91.4C99.4 90.6 99.6 90.6 99.4 91.2Z"/>
  <path id="horned-ghost-tone-4" fill="#c5c5c9" fill-rule="evenodd" d="M215.6 215.2C215.3 215.2 214.4 216.2 214.0 217.0C213.7 217.8 213.4 219.2 213.6 220.0C213.8 220.8 214.8 221.8 215.2 221.8C215.6 221.8 215.8 220.8 216.0 220.0C216.1 219.2 216.1 217.8 216.0 217.0C215.9 216.2 216.0 215.2 215.6 215.2ZM184.0 202.5C182.8 202.9 181.0 205.1 179.4 206.5C177.8 207.9 176.1 209.6 174.5 211.1C172.9 212.6 171.2 214.5 169.5 215.5C167.8 216.5 166.2 216.9 164.5 217.2C162.8 217.4 161.2 216.8 159.5 217.1C157.8 217.3 156.0 217.6 154.6 218.6C153.1 219.5 152.0 221.0 150.8 222.5C149.7 224.0 148.7 225.8 147.6 227.5C146.6 229.2 145.1 231.1 144.5 232.5C144.0 233.9 143.4 235.3 144.2 235.9C144.9 236.5 147.4 236.0 149.0 236.0C150.6 236.0 152.3 236.0 154.0 236.0C155.7 236.0 157.3 236.0 159.0 236.0C160.7 236.0 162.3 236.0 164.0 236.0C165.7 236.0 167.3 236.0 169.0 236.0C170.7 236.0 172.3 236.0 174.0 236.0C175.7 236.0 177.3 236.0 179.0 236.0C180.7 236.0 182.3 236.0 184.0 236.0C185.7 236.0 187.3 236.0 189.0 236.0C190.7 236.0 192.3 236.0 194.0 236.0C195.7 236.0 197.3 236.0 199.0 236.0C200.7 236.0 202.4 236.0 204.0 236.0C205.6 236.0 208.0 236.4 208.6 235.8C209.1 235.1 207.9 233.2 207.1 232.1C206.3 230.9 205.0 230.1 203.7 228.7C202.5 227.4 200.9 225.6 199.7 224.0C198.4 222.4 197.4 220.7 196.3 219.0C195.2 217.3 194.0 215.7 192.9 214.0C191.9 212.3 191.0 210.7 189.9 209.0C188.9 207.3 187.8 205.1 186.8 204.0C185.8 202.9 185.2 202.1 184.0 202.5ZM99.4 91.2C99.1 91.3 98.3 93.5 98.1 95.0C97.9 96.5 97.7 98.7 98.0 100.0C98.3 101.3 98.9 102.2 100.1 103.0C101.2 103.8 103.3 104.1 105.0 104.7C106.7 105.4 108.3 106.2 110.0 106.9C111.7 107.7 113.3 108.3 115.0 109.1C116.7 109.8 118.6 110.4 120.0 111.5C121.4 112.6 122.2 114.1 123.5 115.5C124.7 116.9 126.0 118.4 127.5 119.8C129.0 121.2 130.9 122.4 132.5 123.8C134.1 125.2 135.9 126.9 137.4 128.5C138.8 130.1 139.9 131.8 141.1 133.5C142.2 135.2 143.4 136.8 144.4 138.5C145.4 140.2 146.2 141.8 147.0 143.5C147.8 145.2 148.4 146.8 149.0 148.5C149.6 150.2 150.2 151.8 150.7 153.5C151.1 155.2 151.4 156.8 151.7 158.5C152.0 160.2 151.8 162.3 152.4 163.4C153.0 164.5 154.2 165.0 155.5 165.0C156.9 165.0 158.9 164.5 160.5 163.6C162.1 162.6 164.1 161.0 164.9 159.5C165.8 158.0 165.7 156.2 165.8 154.5C165.8 152.8 165.5 151.2 165.1 149.5C164.8 147.8 164.3 146.2 163.7 144.5C163.1 142.8 162.2 141.2 161.4 139.5C160.5 137.8 159.7 136.2 158.8 134.5C157.9 132.8 156.8 131.2 155.9 129.5C155.0 127.8 153.5 126.0 153.2 124.5C152.9 123.0 153.2 121.2 154.1 120.2C155.1 119.2 157.6 119.4 159.0 118.6C160.3 117.7 161.8 116.3 162.2 115.0C162.6 113.7 162.4 111.1 161.6 110.5C160.7 109.8 158.6 110.8 157.0 111.1C155.4 111.4 153.7 111.9 152.0 112.1C150.3 112.4 148.7 112.7 147.0 112.6C145.3 112.4 143.7 111.7 142.0 111.3C140.3 110.9 138.7 110.5 137.0 110.0C135.3 109.5 133.6 108.9 132.0 108.3C130.4 107.6 128.0 107.0 127.1 106.0C126.2 104.9 126.0 102.9 126.7 102.0C127.5 101.1 129.9 100.7 131.5 100.6C133.1 100.4 134.8 100.9 136.5 101.2C138.2 101.5 139.8 101.9 141.5 102.2C143.2 102.5 144.8 102.9 146.5 102.9C148.2 103.0 149.8 102.7 151.5 102.5C153.2 102.3 154.9 102.2 156.5 101.9C158.1 101.6 160.5 101.3 161.2 100.7C162.0 100.1 161.8 98.9 160.9 98.6C160.0 98.2 157.7 98.5 156.0 98.5C154.3 98.5 152.7 98.5 151.0 98.5C149.3 98.5 147.7 98.5 146.0 98.5C144.3 98.5 142.7 98.5 141.0 98.5C139.3 98.5 137.7 98.5 136.0 98.5C134.3 98.5 132.7 98.5 131.0 98.5C129.3 98.5 127.7 98.5 126.0 98.5C124.3 98.5 122.7 98.5 121.0 98.5C119.3 98.5 117.7 98.5 116.0 98.5C114.3 98.5 112.7 98.5 111.0 98.5C109.3 98.5 107.6 98.5 106.0 98.5C104.4 98.5 102.2 98.9 101.1 98.3C100.0 97.6 99.8 95.7 99.5 94.5C99.2 93.3 99.6 91.1 99.4 91.2Z"/>
  <path id="horned-ghost-tone-5" fill="#dadada" fill-rule="evenodd" d="M184.0 202.7C183.1 203.3 180.9 205.1 179.4 206.5C177.9 207.9 176.5 209.7 174.9 211.2C173.3 212.6 171.5 213.9 170.0 215.2C168.5 216.5 166.6 217.6 166.0 219.1C165.3 220.5 165.3 222.3 165.9 224.0C166.5 225.7 168.7 227.3 169.7 229.0C170.7 230.7 171.0 232.8 172.0 233.9C173.0 235.1 174.1 235.6 175.5 236.0C176.9 236.3 178.8 236.0 180.5 236.0C182.2 236.0 183.8 236.0 185.5 236.0C187.2 236.0 188.8 236.0 190.5 236.0C192.2 236.0 193.8 236.0 195.5 236.0C197.2 236.0 198.9 236.0 200.5 236.0C202.1 236.0 204.5 236.4 205.2 235.8C205.9 235.1 205.2 233.5 204.7 232.0C204.1 230.5 203.0 228.7 202.0 227.0C200.9 225.3 199.5 223.7 198.3 222.0C197.1 220.3 196.0 218.7 194.9 217.0C193.8 215.3 192.7 213.7 191.7 212.0C190.7 210.3 190.0 208.5 188.8 207.0C187.7 205.5 185.8 203.5 185.0 202.7C184.2 202.0 184.9 202.0 184.0 202.7ZM99.4 91.2C99.1 91.5 98.3 93.5 98.1 95.0C97.9 96.5 97.7 98.7 98.0 100.0C98.3 101.3 98.9 102.2 100.1 103.0C101.2 103.8 103.3 104.1 105.0 104.7C106.7 105.4 108.3 106.2 110.0 106.9C111.7 107.7 113.3 108.3 115.0 109.1C116.7 109.8 118.6 110.4 120.0 111.5C121.4 112.6 122.2 114.1 123.5 115.5C124.7 116.9 126.0 118.4 127.5 119.8C129.0 121.2 130.9 122.4 132.5 123.8C134.1 125.2 136.1 127.8 137.4 128.4C138.7 129.0 140.1 128.5 140.2 127.5C140.4 126.5 139.0 124.1 138.4 122.5C137.7 121.0 135.8 119.1 136.1 118.4C136.5 117.6 138.9 118.0 140.5 118.1C142.1 118.3 143.8 119.1 145.5 119.4C147.2 119.8 148.8 120.1 150.5 120.1C152.2 120.1 153.9 119.9 155.5 119.6C157.1 119.2 159.2 119.0 160.3 117.9C161.5 116.9 162.4 114.8 162.4 113.5C162.4 112.2 161.6 110.5 160.4 110.1C159.3 109.8 157.2 111.2 155.5 111.5C153.8 111.9 152.2 112.3 150.5 112.4C148.8 112.5 147.2 112.4 145.5 112.2C143.8 111.9 142.2 111.4 140.5 110.9C138.8 110.5 137.2 110.0 135.5 109.5C133.8 109.0 132.1 108.5 130.5 107.7C128.9 106.9 126.5 105.9 126.1 104.9C125.7 103.8 126.9 102.0 128.0 101.3C129.2 100.6 131.3 100.6 133.0 100.6C134.7 100.6 136.3 101.2 138.0 101.5C139.7 101.8 141.3 102.2 143.0 102.5C144.7 102.7 146.3 103.0 148.0 103.0C149.7 102.9 151.3 102.4 153.0 102.2C154.7 102.0 156.5 102.0 158.0 101.7C159.5 101.3 161.8 100.4 162.1 99.9C162.3 99.4 160.8 98.7 159.5 98.5C158.2 98.3 156.2 98.5 154.5 98.5C152.8 98.5 151.2 98.5 149.5 98.5C147.8 98.5 146.2 98.5 144.5 98.5C142.8 98.5 141.2 98.5 139.5 98.5C137.8 98.5 136.2 98.5 134.5 98.5C132.8 98.5 131.2 98.5 129.5 98.5C127.8 98.5 126.2 98.5 124.5 98.5C122.8 98.5 121.2 98.5 119.5 98.5C117.8 98.5 116.2 98.5 114.5 98.5C112.8 98.5 111.2 98.5 109.5 98.5C107.8 98.5 106.1 98.6 104.5 98.5C102.9 98.4 100.9 98.5 100.1 97.6C99.3 96.7 99.6 94.1 99.5 93.0C99.4 91.9 99.6 90.8 99.4 91.2Z"/>
  <path id="horned-ghost-tone-6" fill="#74bcca" fill-rule="evenodd" d="M99.4 91.2C99.1 91.4 98.3 93.5 98.1 95.0C97.9 96.5 97.7 98.7 98.0 100.0C98.3 101.3 98.9 102.2 100.1 103.0C101.2 103.8 103.3 104.1 105.0 104.7C106.7 105.4 108.3 106.2 110.0 106.9C111.7 107.7 113.3 108.3 115.0 109.1C116.7 109.8 118.3 110.8 120.0 111.5C121.7 112.2 123.3 112.6 125.0 113.2C126.7 113.9 128.3 114.7 130.0 115.4C131.7 116.0 133.3 116.6 135.0 117.0C136.7 117.4 138.3 117.6 140.0 118.0C141.7 118.4 143.3 119.0 145.0 119.3C146.7 119.7 148.3 120.0 150.0 120.0C151.7 120.1 153.3 120.0 155.0 119.7C156.7 119.4 158.7 119.1 159.9 118.2C161.1 117.2 162.2 115.3 162.4 114.0C162.5 112.7 161.9 110.6 160.8 110.2C159.8 109.7 157.6 111.0 156.0 111.4C154.4 111.8 152.7 112.2 151.0 112.3C149.3 112.5 147.7 112.5 146.0 112.3C144.3 112.1 142.7 111.5 141.0 111.1C139.3 110.6 137.7 110.2 136.0 109.7C134.3 109.1 132.6 108.6 131.0 107.9C129.4 107.2 127.0 106.3 126.4 105.3C125.8 104.2 126.5 102.3 127.6 101.5C128.6 100.7 130.8 100.6 132.5 100.6C134.2 100.6 135.8 101.1 137.5 101.4C139.2 101.7 140.8 102.1 142.5 102.4C144.2 102.6 145.8 103.0 147.5 103.0C149.2 103.0 150.8 102.5 152.5 102.3C154.2 102.1 155.9 102.1 157.5 101.8C159.1 101.4 161.5 100.7 161.9 100.2C162.3 99.7 161.1 98.8 160.0 98.5C158.8 98.2 156.7 98.5 155.0 98.5C153.3 98.5 151.7 98.5 150.0 98.5C148.3 98.5 146.7 98.5 145.0 98.5C143.3 98.5 141.7 98.5 140.0 98.5C138.3 98.5 136.7 98.5 135.0 98.5C133.3 98.5 131.7 98.5 130.0 98.5C128.3 98.5 126.7 98.5 125.0 98.5C123.3 98.5 121.7 98.5 120.0 98.5C118.3 98.5 116.7 98.5 115.0 98.5C113.3 98.5 111.7 98.5 110.0 98.5C108.3 98.5 106.6 98.6 105.0 98.5C103.4 98.4 101.3 98.7 100.4 97.9C99.5 97.1 99.7 94.6 99.5 93.5C99.3 92.4 99.6 90.9 99.4 91.2Z"/>
  <path id="horned-ghost-tone-7" fill="#579cae" fill-rule="evenodd" d="M160.8 110.2C159.8 110.1 157.6 111.0 156.0 111.4C154.4 111.8 152.1 111.6 151.1 112.4C150.0 113.1 149.6 114.7 149.9 116.0C150.2 117.3 151.4 119.4 152.7 119.9C153.9 120.4 156.0 119.6 157.5 119.0C159.0 118.4 160.9 117.7 161.7 116.4C162.5 115.2 162.4 112.6 162.2 111.6C162.1 110.5 161.9 110.2 160.8 110.2ZM152.6 99.1C152.7 99.6 153.4 101.2 154.3 101.6C155.2 102.1 156.8 101.8 158.0 101.7C159.2 101.5 161.0 101.0 161.6 100.5C162.2 100.0 162.0 98.9 161.3 98.6C160.7 98.3 158.8 98.5 157.5 98.5C156.2 98.5 154.4 98.5 153.6 98.6C152.8 98.7 152.5 98.6 152.6 99.1ZM119.0 99.1C119.4 99.6 120.7 101.7 122.0 102.2C123.3 102.7 125.2 102.3 126.5 102.0C127.8 101.6 129.9 100.7 130.1 100.1C130.2 99.6 128.6 98.8 127.5 98.6C126.3 98.3 124.4 98.4 123.0 98.5C121.6 98.6 119.8 98.8 119.1 98.9C118.4 99.0 118.5 98.5 119.0 99.1ZM98.4 95.0C98.3 95.3 98.1 96.5 98.0 97.5C97.9 98.5 97.8 100.1 98.1 100.9C98.3 101.8 99.0 102.7 99.6 102.8C100.1 102.9 101.1 102.1 101.2 101.4C101.3 100.6 100.5 99.3 100.1 98.3C99.7 97.3 99.3 95.9 99.0 95.3C98.7 94.8 98.6 94.6 98.4 95.0Z"/>
  <path id="horned-ghost-tone-8" fill="#93d6de" fill-rule="evenodd" d="M98.4 95.0C98.3 95.3 98.1 96.5 98.0 97.5C97.9 98.5 97.8 100.1 98.1 100.9C98.3 101.8 99.0 102.7 99.6 102.8C100.1 102.9 101.1 102.1 101.2 101.4C101.3 100.6 100.5 99.3 100.1 98.3C99.7 97.3 99.3 95.9 99.0 95.3C98.7 94.8 98.6 94.6 98.4 95.0Z"/>
  <path id="horned-ghost-ink-1" fill="#4c4a53" fill-rule="evenodd" d="M202.6 227.6C202.4 227.8 204.0 230.2 204.8 231.5C205.7 232.8 206.6 234.9 207.8 235.6C208.9 236.4 211.6 236.2 211.8 235.9C212.1 235.7 210.5 234.9 209.5 234.0C208.6 233.0 207.2 231.2 206.1 230.2C204.9 229.1 202.8 227.4 202.6 227.6ZM155.5 197.6C155.0 198.3 153.5 200.4 152.4 202.0C151.3 203.6 150.3 205.3 149.0 207.0C147.8 208.7 146.3 210.5 145.0 212.0C143.7 213.5 142.7 214.6 141.3 215.9C139.9 217.3 138.1 218.7 136.5 219.9C134.9 221.2 133.2 222.3 131.5 223.3C129.8 224.4 128.2 225.3 126.5 226.2C124.8 227.1 123.2 227.9 121.5 228.6C119.8 229.3 118.2 229.9 116.5 230.4C114.8 231.0 113.2 231.6 111.5 231.9C109.8 232.1 108.2 232.0 106.5 232.0C104.8 232.0 102.9 231.7 101.5 231.8C100.1 231.9 98.0 232.6 98.2 232.8C98.4 233.1 101.0 233.3 102.5 233.5C104.0 233.7 105.8 233.9 107.5 233.9C109.2 233.9 110.8 233.8 112.5 233.5C114.2 233.1 115.8 232.4 117.5 231.8C119.2 231.2 120.8 230.6 122.5 229.9C124.2 229.1 125.8 228.3 127.5 227.4C129.2 226.5 130.8 225.4 132.5 224.3C134.2 223.3 135.8 222.2 137.5 221.0C139.2 219.8 140.9 218.4 142.5 216.9C144.1 215.4 145.6 213.6 146.9 212.0C148.3 210.4 149.4 208.7 150.6 207.0C151.7 205.3 153.0 203.6 153.8 202.0C154.7 200.4 155.4 198.3 155.7 197.6C156.0 196.8 156.1 196.8 155.5 197.6ZM162.2 106.5C161.8 106.6 161.2 107.5 161.0 108.0C160.7 108.5 160.5 109.3 160.8 109.6C161.0 110.0 162.0 110.2 162.4 110.1C162.8 110.0 163.1 109.5 163.2 109.0C163.3 108.5 163.1 107.5 162.9 107.1C162.8 106.7 162.5 106.3 162.2 106.5ZM98.4 102.6C98.3 102.8 99.7 104.1 101.0 104.8C102.3 105.4 104.3 105.8 106.0 106.4C107.7 107.0 109.3 107.8 111.0 108.5C112.7 109.2 114.3 109.9 116.0 110.6C117.7 111.3 119.3 111.9 121.0 112.6C122.7 113.3 124.3 113.9 126.0 114.6C127.7 115.3 129.3 116.0 131.0 116.6C132.7 117.2 134.3 117.7 136.0 118.2C137.7 118.7 139.3 119.3 141.0 119.7C142.7 120.1 144.3 120.4 146.0 120.7C147.7 121.0 149.3 121.4 151.0 121.6C152.7 121.7 154.3 121.9 156.0 121.6C157.7 121.3 160.1 120.6 161.0 119.9C161.9 119.2 162.2 117.7 161.4 117.5C160.7 117.4 158.2 118.7 156.5 119.1C154.8 119.4 153.2 119.5 151.5 119.5C149.8 119.5 148.2 119.3 146.5 119.0C144.8 118.8 143.2 118.5 141.5 118.0C139.8 117.5 138.2 116.8 136.5 116.3C134.8 115.7 133.2 115.3 131.5 114.8C129.8 114.2 128.2 113.6 126.5 113.0C124.8 112.4 123.2 111.9 121.5 111.3C119.8 110.7 118.2 109.9 116.5 109.2C114.8 108.5 113.2 107.7 111.5 107.1C109.8 106.4 108.2 105.9 106.5 105.3C104.8 104.7 102.9 104.0 101.5 103.6C100.1 103.2 98.5 102.4 98.4 102.6Z"/>
  <path id="horned-ghost-ink-2" fill="#2f616e" fill-rule="evenodd" d="M111.8 98.6C112.3 98.9 113.8 99.8 115.0 100.4C116.2 101.0 117.8 101.8 119.0 102.3C120.2 102.8 122.3 103.3 122.4 103.2C122.5 103.1 120.7 102.1 119.5 101.5C118.3 100.9 116.8 100.0 115.5 99.5C114.2 99.0 112.5 98.7 111.9 98.6C111.3 98.4 111.3 98.3 111.8 98.6Z"/>
</g>
</svg>
