<?xml version="1.0" encoding="UTF-8" standalone="no"?><!DOCTYPE svg PUBLIC "-//W3C//DTD SVG 1.1//EN" "http://www.w3.org/Graphics/SVG/1.1/DTD/svg11.dtd"><svg width="100%" height="100%" viewBox="0 0 8346 3099" version="1.1" xmlns="http://www.w3.org/2000/svg" xmlns:xlink="http://www.w3.org/1999/xlink" xml:space="preserve" xmlns:serif="http://www.serif.com/" style="fill-rule:evenodd;clip-rule:evenodd;stroke-linejoin:round;stroke-miterlimit:2;"><g id="rectangle"><g id="text3719"><g transform="matrix(4.66793,0,0,4.66793,2715.77,2074.8)"><g transform="matrix(288,0,0,288,0,0)"><path d="M0.693,-0.799c0.021,0 0.045,0.005 0.07,0.015c0.023,0.009 0.035,0.027 0.035,0.053l-0,0.689c-0,0.032 -0.02,0.048 -0.059,0.048c-0.039,-0 -0.059,-0.016 -0.059,-0.048l0,-0.514l-0.029,-0.003l-0.04,0.13l-0.12,0.4c-0.007,0.023 -0.025,0.035 -0.054,0.034c-0.013,-0.001 -0.024,-0.004 -0.033,-0.01c-0.009,-0.006 -0.016,-0.015 -0.019,-0.026l-0.072,-0.233c-0.015,-0.046 -0.029,-0.093 -0.044,-0.141c-0.015,-0.047 -0.031,-0.1 -0.048,-0.158l-0.029,0.004l-0,0.517c0,0.032 -0.02,0.048 -0.059,0.048c-0.039,-0 -0.059,-0.016 -0.059,-0.048l-0,-0.689c-0,-0.025 0.012,-0.043 0.035,-0.053c0.025,-0.01 0.048,-0.015 0.071,-0.014c0.01,0 0.02,0.001 0.031,0.004c0.011,0.003 0.021,0.007 0.03,0.012c0.009,0.005 0.018,0.011 0.025,0.018c0.007,0.008 0.013,0.017 0.017,0.027l0.157,0.535c0.011,-0.039 0.023,-0.082 0.036,-0.128c0.013,-0.046 0.026,-0.093 0.039,-0.14c0.013,-0.047 0.026,-0.094 0.039,-0.141c0.013,-0.046 0.026,-0.089 0.037,-0.129c0.004,-0.009 0.01,-0.018 0.017,-0.025c0.007,-0.007 0.016,-0.014 0.025,-0.018c0.009,-0.005 0.019,-0.009 0.029,-0.012c0.011,-0.003 0.021,-0.004 0.031,-0.004Z" style="fill:#8fce4f;fill-rule:nonzero;"/></g><g transform="matrix(288,0,0,288,247.392,0)"><path d="M0.184,-0.042c0,0.032 -0.018,0.048 -0.055,0.048c-0.037,0 -0.056,-0.016 -0.056,-0.048l-0,-0.516c-0,-0.032 0.019,-0.048 0.056,-0.048c0.037,0 0.055,0.016 0.055,0.048l0,0.516Zm0.021,-0.69c0,0.021 -0.007,0.039 -0.022,0.054c-0.015,0.015 -0.033,0.022 -0.054,0.022c-0.021,0 -0.039,-0.007 -0.055,-0.022c-0.015,-0.015 -0.022,-0.033 -0.022,-0.054c0,-0.022 0.007,-0.04 0.022,-0.055c0.016,-0.015 0.034,-0.022 0.055,-0.022c0.021,0 0.039,0.007 0.054,0.022c0.015,0.015 0.022,0.033 0.022,0.055Z" style="fill:#8fce4f;fill-rule:nonzero;"/></g><g transform="matrix(288,0,0,288,319.968,0)"><path d="M0.181,-0.167l0,0.127c-0,0.031 -0.018,0.047 -0.055,0.047c-0.037,0 -0.055,-0.016 -0.055,-0.047l0,-0.712c0,-0.032 0.018,-0.048 0.055,-0.048c0.037,-0 0.055,0.016 0.055,0.048l0,0.424c0.017,-0.02 0.035,-0.041 0.056,-0.065c0.02,-0.022 0.04,-0.046 0.061,-0.07c0.02,-0.023 0.04,-0.046 0.06,-0.069c0.02,-0.023 0.039,-0.045 0.056,-0.065l0,0.001c0.012,-0.014 0.024,-0.021 0.036,-0.021c0.007,0 0.013,0.001 0.02,0.004c0.006,0.003 0.013,0.008 0.02,0.013l-0.001,0c0.016,0.013 0.024,0.027 0.024,0.04c0,0.005 -0.001,0.01 -0.003,0.015c-0.002,0.006 -0.005,0.011 -0.01,0.015l-0.319,0.363Zm0.334,0.1c0.005,0.009 0.007,0.018 0.007,0.027c0,0.017 -0.01,0.03 -0.03,0.039c-0.013,0.008 -0.025,0.012 -0.036,0.012c-0.007,-0 -0.014,-0.003 -0.021,-0.008c-0.007,-0.005 -0.012,-0.011 -0.016,-0.018l-0.1,-0.193c-0.006,-0.01 -0.009,-0.02 -0.009,-0.03c0,-0.017 0.009,-0.031 0.026,-0.042c0.005,-0.003 0.01,-0.006 0.015,-0.009c0.005,-0.003 0.01,-0.005 0.016,-0.006c0.007,-0.001 0.014,-0 0.021,0.004c0.007,0.004 0.012,0.009 0.017,0.016l0.11,0.208Z" style="fill:#8fce4f;fill-rule:nonzero;"/></g><g transform="matrix(288,0,0,288,473.472,0)"><path d="M0.179,-0.042c-0,0.032 -0.018,0.048 -0.055,0.048c-0.038,0 -0.057,-0.016 -0.057,-0.048l0,-0.414c0,-0.055 0.016,-0.093 0.049,-0.114c0.033,-0.021 0.07,-0.032 0.113,-0.032l0.114,0c0.025,0 0.037,0.016 0.037,0.047c0.001,0.031 -0.011,0.047 -0.037,0.047l-0.106,0c-0.024,0 -0.04,0.005 -0.047,0.014c-0.007,0.009 -0.011,0.022 -0.011,0.039l-0,0.413Z" style="fill:#8fce4f;fill-rule:nonzero;"/></g><g transform="matrix(288,0,0,288,586.944,0)"><path d="M0.391,-0.602c0.017,0 0.035,0.004 0.053,0.011c0.019,0.007 0.037,0.017 0.054,0.028l-0.001,-0c0.017,0.013 0.031,0.029 0.04,0.049c0.009,0.021 0.014,0.044 0.014,0.071l0,0.284c0,0.055 -0.018,0.095 -0.054,0.121c-0.035,0.025 -0.071,0.038 -0.106,0.038l-0.16,-0c-0.017,-0 -0.035,-0.003 -0.053,-0.009c-0.018,-0.006 -0.036,-0.016 -0.053,-0.029c-0.036,-0.025 -0.054,-0.066 -0.054,-0.121l-0,-0.284c-0,-0.027 0.005,-0.05 0.014,-0.071c0.009,-0.02 0.023,-0.036 0.04,-0.049l-0.001,-0c0.017,-0.011 0.034,-0.021 0.053,-0.028c0.019,-0.007 0.037,-0.011 0.054,-0.011l0.16,0Zm-0.018,0.508c0.025,-0 0.042,-0.007 0.052,-0.021c0.011,-0.014 0.016,-0.029 0.016,-0.045l-0,-0.282c-0,-0.017 -0.005,-0.032 -0.016,-0.045c-0.01,-0.014 -0.027,-0.021 -0.052,-0.021l-0.124,0c-0.025,0 -0.042,0.007 -0.053,0.021c-0.01,0.013 -0.015,0.028 -0.015,0.045l-0,0.282c-0,0.016 0.005,0.031 0.015,0.045c0.011,0.014 0.028,0.021 0.053,0.021l0.124,-0Z" style="fill:#8fce4f;fill-rule:nonzero;"/></g><g transform="matrix(288,0,0,288,761.472,0)"><path d="M0.503,-0.782c0.01,-0.012 0.021,-0.018 0.034,-0.018c0.014,-0 0.028,0.006 0.043,0.019c0.007,0.007 0.013,0.015 0.018,0.022c0.005,0.007 0.008,0.015 0.008,0.022c-0,0.012 -0.004,0.022 -0.013,0.031l-0.134,0.156l-0.261,0.307l-0,0.201c-0,0.032 -0.02,0.048 -0.06,0.048c-0.039,-0 -0.059,-0.016 -0.059,-0.048l-0,-0.709c-0,-0.032 0.02,-0.048 0.059,-0.048c0.04,-0 0.06,0.016 0.06,0.048l-0,0.327l0.305,-0.358Zm-0.142,0.475c-0.007,-0.009 -0.01,-0.021 -0.01,-0.034c-0,-0.02 0.008,-0.036 0.025,-0.048l-0.001,-0c0.013,-0.009 0.027,-0.014 0.04,-0.014c0.013,-0 0.023,0.007 0.032,0.022l0.193,0.282l-0.001,-0.001c0.006,0.009 0.009,0.019 0.009,0.03c-0,0.017 -0.009,0.033 -0.026,0.046l0.001,-0c-0.007,0.005 -0.014,0.008 -0.021,0.011c-0.007,0.003 -0.013,0.004 -0.018,0.004c-0.005,-0 -0.011,-0.002 -0.017,-0.006c-0.005,-0.004 -0.011,-0.009 -0.016,-0.015l-0.19,-0.277Z" style="fill:#162d50;fill-rule:nonzero;"/></g><g transform="matrix(288,0,0,288,948.96,0)"><path d="M0.184,-0.042c0,0.032 -0.018,0.048 -0.055,0.048c-0.037,0 -0.056,-0.016 -0.056,-0.048l-0,-0.516c-0,-0.032 0.019,-0.048 0.056,-0.048c0.037,0 0.055,0.016 0.055,0.048l0,0.516Zm0.021,-0.69c0,0.021 -0.007,0.039 -0.022,0.054c-0.015,0.015 -0.033,0.022 -0.054,0.022c-0.021,0 -0.039,-0.007 -0.055,-0.022c-0.015,-0.015 -0.022,-0.033 -0.022,-0.054c0,-0.022 0.007,-0.04 0.022,-0.055c0.016,-0.015 0.034,-0.022 0.055,-0.022c0.021,0 0.039,0.007 0.054,0.022c0.015,0.015 0.022,0.033 0.022,0.055Z" style="fill:#162d50;fill-rule:nonzero;"/></g><g transform="matrix(288,0,0,288,1021.54,0)"><path d="M0.202,-0.508l0,0.364c0,0.017 0.004,0.031 0.011,0.04c0.007,0.009 0.023,0.014 0.047,0.014l0.026,0c0.026,0 0.038,0.015 0.037,0.046c0,0.031 -0.012,0.047 -0.037,0.047l-0.033,0c-0.021,0 -0.041,-0.003 -0.06,-0.008c-0.019,-0.006 -0.037,-0.014 -0.054,-0.025l0,0.001c-0.033,-0.021 -0.049,-0.059 -0.049,-0.114l-0,-0.365l-0.039,0c-0.024,0 -0.037,-0.016 -0.038,-0.047c-0,-0.031 0.013,-0.047 0.038,-0.047l0.039,0l-0,-0.107c0,-0.032 0.019,-0.048 0.057,-0.048c0.037,0 0.055,0.016 0.055,0.048l0,0.107l0.083,0c0.026,0 0.038,0.016 0.037,0.047c0,0.031 -0.012,0.047 -0.037,0.047l-0.083,0Z" style="fill:#162d50;fill-rule:nonzero;"/></g></g></g></g><g id="icon"><g id="g922"><path id="circle92" d="M1481.23,1171.28c34.301,-28.441 85.239,-23.684 113.68,10.617c28.441,34.3 23.684,85.238 -10.616,113.679c-34.301,28.442 -85.239,23.685 -113.68,-10.616c-28.441,-34.3 -23.684,-85.239 10.616,-113.68Z" style="fill:#162d50;"/><path id="circle98" d="M1902.58,1110.29c37.165,-30.816 92.356,-25.662 123.172,11.502c30.817,37.165 25.662,92.357 -11.502,123.173c-37.165,30.816 -92.357,25.662 -123.173,-11.503c-30.816,-37.164 -25.662,-92.356 11.503,-123.172Z" style="fill:#162d50;"/><path id="circle100" d="M1631.2,793.516c28.576,-23.695 71.013,-19.732 94.708,8.844c23.694,28.576 19.731,71.013 -8.845,94.707c-28.576,23.695 -71.013,19.732 -94.707,-8.844c-23.695,-28.576 -19.732,-71.013 8.844,-94.707Z" style="fill:#162d50;"/><path id="circle102" d="M1282.19,846.913c74.315,-61.62 184.676,-51.314 246.296,23.001c61.62,74.314 51.314,184.676 -23.001,246.296c-74.315,61.62 -184.676,51.314 -246.296,-23.001c-61.62,-74.315 -51.314,-184.676 23.001,-246.296Z" style="fill:#162d50;"/><path id="circle106" d="M457.889,1741.12c25.726,-21.331 63.93,-17.763 85.261,7.963c21.331,25.725 17.763,63.929 -7.962,85.26c-25.726,21.331 -63.93,17.763 -85.261,-7.962c-21.331,-25.726 -17.763,-63.93 7.962,-85.261Z" style="fill:#162d50;"/><path id="circle114" d="M1086.38,1306.42c20.007,-16.589 49.718,-13.814 66.307,6.192c16.589,20.007 13.814,49.718 -6.192,66.307c-20.007,16.589 -49.718,13.814 -66.307,-6.192c-16.589,-20.007 -13.814,-49.718 6.192,-66.307Z" style="fill:#162d50;"/><path id="circle116" d="M871.985,2248.66c65.742,-54.512 163.373,-45.394 217.885,20.348c54.511,65.742 45.394,163.373 -20.348,217.885c-65.742,54.512 -163.373,45.394 -217.885,-20.348c-54.512,-65.742 -45.394,-163.373 20.348,-217.885Z" style="fill:#162d50;"/><path id="circle118" d="M518.183,1180.44c55.817,-46.282 138.709,-38.541 184.991,17.276c46.282,55.817 38.541,138.708 -17.276,184.991c-55.817,46.282 -138.708,38.541 -184.991,-17.276c-46.282,-55.817 -38.541,-138.709 17.276,-184.991Z" style="fill:#162d50;"/><path id="circle132" d="M1726.48,2054.54c31.009,-25.712 77.059,-21.411 102.77,9.597c25.712,31.009 21.412,77.059 -9.597,102.771c-31.009,25.711 -77.059,21.411 -102.77,-9.598c-25.712,-31.009 -21.411,-77.058 9.597,-102.77Z" style="fill:#162d50;"/><path id="circle136" d="M1945.37,1506.02c40.891,-33.906 101.617,-28.235 135.523,12.656c33.906,40.891 28.235,101.617 -12.656,135.524c-40.891,33.906 -101.617,28.235 -135.524,-12.657c-33.906,-40.891 -28.235,-101.617 12.657,-135.523Z" style="fill:#162d50;"/><path id="circle140" d="M2053.33,2269.62c21.424,-17.764 53.24,-14.793 71.004,6.631c17.764,21.424 14.793,53.239 -6.631,71.003c-21.424,17.764 -53.239,14.793 -71.004,-6.631c-17.764,-21.423 -14.792,-53.239 6.631,-71.003Z" style="fill:#162d50;"/><path id="circle142" d="M1707.15,1721.4c64.258,-53.281 159.685,-44.369 212.966,19.888c53.281,64.258 44.369,159.685 -19.889,212.966c-64.257,53.281 -159.684,44.37 -212.965,-19.888c-53.281,-64.258 -44.37,-159.685 19.888,-212.966Z" style="fill:#162d50;"/><path id="circle144" d="M1480.99,1807.71c27.261,-22.604 67.745,-18.823 90.349,8.438c22.604,27.26 18.823,67.744 -8.438,90.348c-27.26,22.604 -67.744,18.824 -90.348,-8.437c-22.604,-27.261 -18.824,-67.745 8.437,-90.349Z" style="fill:#162d50;"/><path id="circle148" d="M1104.84,1792.09c25.318,-20.993 62.916,-17.482 83.909,7.836c20.993,25.317 17.482,62.916 -7.836,83.909c-25.318,20.993 -62.916,17.481 -83.909,-7.836c-20.993,-25.318 -17.482,-62.917 7.836,-83.909Z" style="fill:#162d50;"/></g><g id="g941"><path id="circle90" d="M1216.28,1405.32c86.031,-71.334 214.291,-58.799 286.242,27.975c71.952,86.774 60.521,215.138 -25.509,286.472c-86.03,71.334 -214.291,58.799 -286.242,-27.975c-71.951,-86.774 -60.521,-215.138 25.509,-286.472Z" style="fill:#8fce4f;"/><path id="circle94" d="M1673.09,1265.64c71.462,-59.255 177.589,-49.344 236.844,22.119c59.255,71.462 49.344,177.589 -22.118,236.844c-71.463,59.255 -177.589,49.344 -236.845,-22.119c-59.255,-71.462 -49.344,-177.588 22.119,-236.844Z" style="fill:#8fce4f;"/><path id="circle96" d="M1656.57,982.2c48.591,-40.29 120.751,-33.551 161.041,15.04c40.291,48.59 33.552,120.751 -15.039,161.041c-48.591,40.29 -120.751,33.551 -161.041,-15.039c-40.291,-48.591 -33.552,-120.751 15.039,-161.042Z" style="fill:#8fce4f;"/><path id="circle104" d="M1209.04,1169.75c25.726,-21.331 63.93,-17.764 85.261,7.962c21.331,25.725 17.763,63.929 -7.962,85.26c-25.726,21.331 -63.93,17.763 -85.261,-7.962c-21.331,-25.726 -17.763,-63.929 7.962,-85.26Z" style="fill:#8fce4f;"/><path id="circle108" d="M2120.71,1025.53c54.315,-45.036 134.975,-37.503 180.011,16.811c45.037,54.315 37.504,134.975 -16.811,180.011c-54.314,45.037 -134.974,37.504 -180.011,-16.81c-45.036,-54.315 -37.503,-134.975 16.811,-180.012Z" style="fill:#8fce4f;"/><path id="circle110" d="M1158.79,582.169c51.453,-42.664 127.865,-35.528 170.529,15.925c42.664,51.454 35.528,127.865 -15.925,170.529c-51.454,42.665 -127.865,35.529 -170.529,-15.925c-42.664,-51.453 -35.529,-127.865 15.925,-170.529Z" style="fill:#8fce4f;"/><path id="circle112" d="M888.235,972.579c74.31,-61.616 184.664,-51.31 246.28,23c61.616,74.309 51.31,184.664 -23,246.28c-74.309,61.615 -184.664,51.31 -246.28,-23c-61.616,-74.31 -51.31,-184.664 23,-246.28Z" style="fill:#8fce4f;"/><path id="circle120" d="M765.366,1364.21c71.325,-59.141 177.246,-49.249 236.387,22.075c59.14,71.325 49.249,177.246 -22.076,236.387c-71.324,59.141 -177.246,49.249 -236.387,-22.075c-59.14,-71.325 -49.249,-177.246 22.076,-236.387Z" style="fill:#8fce4f;"/><path id="circle122" d="M1007.61,1656.37c21.706,-17.998 53.941,-14.988 71.94,6.718c17.998,21.707 14.988,53.942 -6.718,71.94c-21.707,17.999 -53.942,14.988 -71.94,-6.718c-17.999,-21.706 -14.988,-53.942 6.718,-71.94Z" style="fill:#8fce4f;"/><path id="circle124" d="M811.917,1809.13c65.115,-53.992 161.815,-44.961 215.807,20.154c53.991,65.115 44.961,161.815 -20.154,215.807c-65.115,53.992 -161.815,44.961 -215.807,-20.154c-53.992,-65.115 -44.961,-161.815 20.154,-215.807Z" style="fill:#8fce4f;"/><path id="circle128" d="M2057.34,1743.72c57.163,-47.398 142.054,-39.471 189.453,17.693c47.398,57.163 39.47,142.054 -17.693,189.452c-57.163,47.399 -142.054,39.471 -189.452,-17.692c-47.399,-57.164 -39.471,-142.054 17.692,-189.453Z" style="fill:#8fce4f;"/><path id="circle130" d="M1368.72,2000.42c80.618,-66.847 200.342,-55.666 267.189,24.952c66.847,80.619 55.667,200.343 -24.952,267.19c-80.619,66.847 -200.342,55.666 -267.19,-24.952c-66.847,-80.619 -55.666,-200.343 24.953,-267.19Z" style="fill:#8fce4f;"/><path id="circle134" d="M2036.26,1299.65c29.207,-24.218 72.581,-20.168 96.799,9.039c24.217,29.207 20.167,72.581 -9.04,96.799c-29.207,24.218 -72.581,20.167 -96.799,-9.04c-24.218,-29.207 -20.167,-72.581 9.04,-96.798Z" style="fill:#8fce4f;"/><path id="circle138" d="M1640.54,1597.99c21.424,-17.764 53.239,-14.793 71.003,6.631c17.764,21.423 14.793,53.239 -6.631,71.003c-21.423,17.764 -53.239,14.793 -71.003,-6.631c-17.764,-21.424 -14.793,-53.239 6.631,-71.003Z" style="fill:#8fce4f;"/><path id="circle146" d="M1310.07,1860.09c23.372,-19.379 58.08,-16.137 77.459,7.234c19.379,23.372 16.138,58.08 -7.234,77.459c-23.371,19.379 -58.079,16.137 -77.458,-7.234c-19.379,-23.371 -16.138,-58.079 7.233,-77.459Z" style="fill:#8fce4f;"/><path id="circle150" d="M1101.38,2003.37c42.847,-35.528 106.478,-29.585 142.006,13.262c35.528,42.847 29.585,106.478 -13.262,142.006c-42.847,35.528 -106.478,29.585 -142.005,-13.262c-35.528,-42.847 -29.586,-106.478 13.261,-142.006Z" style="fill:#8fce4f;"/></g></g></svg>