<?xml version="1.0" encoding="UTF-8" standalone="no"?><!DOCTYPE svg PUBLIC "-//W3C//DTD SVG 1.1//EN" "http://www.w3.org/Graphics/SVG/1.1/DTD/svg11.dtd"><svg width="100%" height="100%" viewBox="0 0 6300 6300" version="1.1" xmlns="http://www.w3.org/2000/svg" xmlns:xlink="http://www.w3.org/1999/xlink" xml:space="preserve" xmlns:serif="http://www.serif.com/" style="fill-rule:evenodd;clip-rule:evenodd;stroke-linejoin:round;stroke-miterlimit:2;"><g id="on-white"><g id="rectangle"><g id="text3719"><g transform="matrix(7.51258,0,0,7.51258,624.657,5923.96)"><g transform="matrix(288,0,0,288,0,0)"><path d="M0.381,-0.435c0,-0.009 -0.001,-0.017 -0.004,-0.026c-0.003,-0.008 -0.006,-0.016 -0.01,-0.023c-0.009,-0.016 -0.027,-0.024 -0.054,-0.024l-0.064,0c-0.027,0 -0.046,0.008 -0.055,0.024c-0.008,0.015 -0.012,0.032 -0.012,0.049l0,0.396c0,0.031 -0.018,0.047 -0.055,0.047c-0.038,-0 -0.057,-0.016 -0.057,-0.047l0,-0.405c0,-0.055 0.018,-0.095 0.054,-0.12c0.037,-0.025 0.072,-0.038 0.107,-0.038l0.101,0c0.015,0 0.032,0.003 0.051,0.009c0.019,0.006 0.037,0.015 0.054,0.028c0.017,-0.013 0.034,-0.022 0.053,-0.028c0.018,-0.006 0.035,-0.009 0.052,-0.009l0.1,0c0.035,0 0.071,0.013 0.106,0.038c0.037,0.025 0.055,0.065 0.055,0.12l0,0.405c0,0.031 -0.019,0.047 -0.056,0.047c-0.037,0 -0.056,-0.016 -0.056,-0.047l0,-0.396c0,-0.009 -0.001,-0.017 -0.003,-0.026c-0.002,-0.009 -0.006,-0.017 -0.011,-0.024l0.001,0.001c-0.005,-0.009 -0.012,-0.015 -0.02,-0.018c-0.008,-0.004 -0.02,-0.006 -0.035,-0.006l-0.063,0c-0.028,0 -0.046,0.008 -0.055,0.024c-0.009,0.015 -0.013,0.031 -0.013,0.049l0,0.396c0,0.031 -0.018,0.047 -0.055,0.047c-0.037,0 -0.056,-0.016 -0.056,-0.047l0,-0.396Z" style="fill:#8fce4f;fill-rule:nonzero;"/></g><g transform="matrix(288,0,0,288,245.952,0)"><path d="M0.184,-0.042c0,0.032 -0.018,0.048 -0.055,0.048c-0.037,0 -0.056,-0.016 -0.056,-0.048l-0,-0.516c-0,-0.032 0.019,-0.048 0.056,-0.048c0.037,0 0.055,0.016 0.055,0.048l0,0.516Zm0.021,-0.69c0,0.021 -0.007,0.039 -0.022,0.054c-0.015,0.015 -0.033,0.022 -0.054,0.022c-0.021,0 -0.039,-0.007 -0.055,-0.022c-0.015,-0.015 -0.022,-0.033 -0.022,-0.054c0,-0.022 0.007,-0.04 0.022,-0.055c0.016,-0.015 0.034,-0.022 0.055,-0.022c0.021,0 0.039,0.007 0.054,0.022c0.015,0.015 0.022,0.033 0.022,0.055Z" style="fill:#8fce4f;fill-rule:nonzero;"/></g><g transform="matrix(288,0,0,288,318.528,0)"><path d="M0.391,-0.602c0.017,0 0.035,0.004 0.053,0.011c0.019,0.007 0.037,0.017 0.054,0.028l-0.001,-0c0.017,0.013 0.031,0.029 0.04,0.049c0.009,0.021 0.014,0.044 0.014,0.071l0,0.284c0,0.055 -0.018,0.095 -0.054,0.121c-0.035,0.025 -0.071,0.038 -0.106,0.038l-0.16,-0c-0.017,-0 -0.035,-0.003 -0.053,-0.009c-0.018,-0.006 -0.036,-0.016 -0.053,-0.029c-0.036,-0.025 -0.054,-0.066 -0.054,-0.121l-0,-0.284c-0,-0.027 0.005,-0.05 0.014,-0.071c0.009,-0.02 0.023,-0.036 0.04,-0.049l-0.001,-0c0.017,-0.011 0.034,-0.021 0.053,-0.028c0.019,-0.007 0.037,-0.011 0.054,-0.011l0.16,0Zm-0.018,0.508c0.025,-0 0.042,-0.007 0.052,-0.021c0.011,-0.014 0.016,-0.029 0.016,-0.045l-0,-0.282c-0,-0.017 -0.005,-0.032 -0.016,-0.045c-0.01,-0.014 -0.027,-0.021 -0.052,-0.021l-0.124,0c-0.025,0 -0.042,0.007 -0.053,0.021c-0.01,0.013 -0.015,0.028 -0.015,0.045l-0,0.282c-0,0.016 0.005,0.031 0.015,0.045c0.011,0.014 0.028,0.021 0.053,0.021l0.124,-0Z" style="fill:#162d50;fill-rule:nonzero;"/></g><g transform="matrix(288,0,0,288,493.056,0)"><path d="M0.181,-0.042c-0,0.032 -0.018,0.048 -0.055,0.048c-0.037,0 -0.055,-0.016 -0.055,-0.048l0,-0.402c0,-0.027 0.004,-0.051 0.013,-0.071c0.009,-0.02 0.022,-0.036 0.041,-0.049c0.035,-0.025 0.071,-0.038 0.106,-0.038l0.161,0c0.034,0 0.069,0.013 0.106,0.038c0.036,0.025 0.054,0.065 0.054,0.12l0,0.402c0,0.032 -0.018,0.048 -0.055,0.048c-0.037,0 -0.055,-0.016 -0.055,-0.048l-0,-0.393c-0,-0.017 -0.005,-0.034 -0.016,-0.05l0.001,0.001c-0.009,-0.016 -0.026,-0.024 -0.053,-0.024l-0.125,0c-0.027,0 -0.045,0.008 -0.054,0.024c-0.009,0.014 -0.014,0.03 -0.014,0.049l-0,0.393Z" style="fill:#162d50;fill-rule:nonzero;"/></g></g></g></g><g id="icon"><g id="g922"><path id="circle98" d="M3360.56,422.196c119.052,-97.164 297.1,-82.469 397.355,32.796c100.254,115.265 84.994,287.731 -34.058,384.895c-119.051,97.165 -297.1,82.47 -397.354,-32.795c-100.255,-115.265 -84.994,-287.731 34.057,-384.896Z" style="fill:#162d50;"/><path id="circle102" d="M4003.76,1178.27c204.675,-167.046 510.777,-141.782 683.136,56.382c172.358,198.165 146.122,494.67 -58.553,661.716c-204.674,167.047 -510.777,141.783 -683.135,-56.382c-172.359,-198.165 -146.122,-494.67 58.552,-661.716Z" style="fill:#162d50;"/><path id="circle116" d="M2760.51,2828.81c181.064,-147.777 451.857,-125.428 604.333,49.878c152.476,175.305 129.266,437.607 -51.799,585.384c-181.064,147.777 -451.856,125.427 -604.333,-49.878c-152.476,-175.306 -129.266,-437.607 51.799,-585.384Z" style="fill:#162d50;"/><path id="circle118" d="M1627.94,1146.87c153.729,-125.467 383.64,-106.492 513.097,42.348c129.457,148.839 109.751,371.541 -43.978,497.008c-153.729,125.467 -383.64,106.492 -513.097,-42.348c-129.457,-148.839 -109.751,-371.541 43.978,-497.008Z" style="fill:#162d50;"/></g><g id="g941"><path id="circle90" d="M3471.16,1741.6c236.941,-193.381 592.701,-162.524 793.957,68.865c201.255,231.389 172.284,576.248 -64.657,769.629c-236.941,193.38 -592.701,162.523 -793.957,-68.866c-201.256,-231.389 -172.284,-576.248 64.657,-769.628Z" style="fill:#8fce4f;"/><path id="circle112" d="M2641.22,963.328c204.661,-167.035 510.744,-141.773 683.091,56.379c172.347,198.151 146.112,494.637 -58.549,661.672c-204.661,167.035 -510.743,141.773 -683.09,-56.378c-172.347,-198.152 -146.112,-494.637 58.548,-661.673Z" style="fill:#8fce4f;"/><path id="circle124" d="M2020.63,1993.3c179.337,-146.367 447.547,-124.231 598.569,49.403c151.022,173.633 128.033,433.434 -51.304,579.801c-179.338,146.368 -447.548,124.231 -598.57,-49.402c-151.021,-173.634 -128.033,-433.434 51.305,-579.802Z" style="fill:#8fce4f;"/><path id="circle128" d="M4031.9,2950.8c107.227,-87.513 267.59,-74.278 357.886,29.538c90.297,103.816 76.552,259.152 -30.675,346.665c-107.226,87.514 -267.589,74.278 -357.886,-29.538c-90.296,-103.816 -76.551,-259.151 30.675,-346.665Z" style="fill:#8fce4f;"/></g></g></g></svg>