<svg xmlns="http://www.w3.org/2000/svg" xmlns:xlink="http://www.w3.org/1999/xlink" version="1.0" x="0px" y="0px" viewBox="0 0 100 100" enable-background="new 0 0 100 100" xml:space="preserve"><circle cx="47.8211975" cy="45.7652626" r="10.5989332"></circle><circle cx="63.2801208" cy="39.4836693" r="3.5781164"></circle><circle cx="67.1561584" cy="52.0069809" r="7.4547563"></circle><circle cx="74.6109009" cy="39.483757" r="5.0688348"></circle><circle cx="79.3803711" cy="49.6212349" r="3.8769031"></circle><circle cx="79.0830078" cy="30.2406883" r="2.9809473"></circle><circle cx="65.6653442" cy="26.9606724" r="7.7522621"></circle><circle cx="54.0368347" cy="30.8368931" r="2.6836023"></circle><circle cx="12.2460632" cy="29.0809765" r="2.6836023"></circle><circle cx="89.2203369" cy="54.6895638" r="5.6659174"></circle><circle cx="68.9446411" cy="12.052619" r="5.3674645"></circle><circle cx="48.6696472" cy="20.1028423" r="7.75175"></circle><circle cx="45.9857178" cy="31.4332886" r="2.0870283"></circle><circle cx="12.0159607" cy="62.2856178" r="6.8580084"></circle><circle cx="30.1643066" cy="14.7968512" r="5.8226504"></circle><circle cx="33.3986816" cy="29.6770401" r="7.4403577"></circle><circle cx="33.3986816" cy="41.3214455" r="2.2643397"></circle><circle cx="22.4004517" cy="45.525547" r="6.7926006"></circle><circle cx="81.3523254" cy="72.9260406" r="8.3484993"></circle><circle cx="66.7413635" cy="77.6965103" r="5.9630885"></circle><circle cx="35.9855652" cy="69.4203949" r="8.4098864"></circle><circle cx="46.6603088" cy="76.2125549" r="3.2347298"></circle><circle cx="78.5843506" cy="59.0333977" r="3.0467765"></circle><circle cx="69.6456299" cy="64.7219467" r="4.265645"></circle><circle cx="56.6438293" cy="57.2054749" r="2.2348571"></circle><circle cx="51.7272644" cy="91.7970047" r="2.2348571"></circle><circle cx="55.4251404" cy="67.7685699" r="6.7031717"></circle><circle cx="45.2675781" cy="60.4556007" r="2.8437576"></circle><circle cx="37.9544373" cy="57.0020866" r="2.4380357"></circle><circle cx="32.8760376" cy="49.0792007" r="2.6410723"></circle><circle cx="26.7814331" cy="58.0182495" r="4.4696827"></circle></svg>