<?xml version="1.0" encoding="UTF-8" standalone="no"?><!DOCTYPE svg PUBLIC "-//W3C//DTD SVG 1.1//EN" "http://www.w3.org/Graphics/SVG/1.1/DTD/svg11.dtd"><svg width="100%" height="100%" viewBox="0 0 7084 2167" version="1.1" xmlns="http://www.w3.org/2000/svg" xmlns:xlink="http://www.w3.org/1999/xlink" xml:space="preserve" xmlns:serif="http://www.serif.com/" style="fill-rule:evenodd;clip-rule:evenodd;stroke-linejoin:round;stroke-miterlimit:2;"><path d="M3045.81,1009.44c-0,-18.564 -2.856,-36.771 -8.568,-54.621c-5.712,-17.849 -12.852,-34.628 -21.42,-50.336c-18.564,-34.272 -57.119,-51.408 -115.667,-51.408l-137.087,0c-58.547,0 -97.817,17.136 -117.809,51.408c-17.136,32.844 -25.704,67.829 -25.704,104.957l0,848.225c0,67.116 -39.269,100.673 -117.809,100.673c-81.395,0 -122.093,-33.557 -122.093,-100.673l0,-867.503c0,-117.095 38.556,-202.774 115.667,-257.038c78.54,-54.263 154.937,-81.395 229.193,-81.395l216.34,-0c32.844,-0 69.257,6.426 109.241,19.278c39.984,12.852 78.539,32.843 115.667,59.975c35.7,-27.132 73.184,-47.123 112.454,-59.975c39.27,-12.852 76.754,-19.278 112.454,-19.278l214.198,-0c75.684,-0 151.367,27.132 227.051,81.395c78.539,52.836 117.809,138.515 117.809,257.038l-0,867.503c-0,67.116 -39.984,100.673 -119.951,100.673c-79.968,0 -119.951,-33.557 -119.951,-100.673l-0,-848.225c-0,-18.564 -2.142,-37.128 -6.426,-55.692c-4.284,-18.563 -12.138,-35.699 -23.562,-51.407l2.142,2.142c-11.424,-18.564 -25.704,-31.773 -42.84,-39.627c-17.136,-7.854 -42.125,-11.781 -74.969,-11.781l-134.945,0c-59.976,0 -99.245,17.136 -117.809,51.408c-18.564,31.416 -27.846,66.401 -27.846,104.957l0,848.225c0,67.116 -39.27,100.673 -117.809,100.673c-79.967,0 -119.951,-33.557 -119.951,-100.673l-0,-848.225Z" style="fill:#649037;fill-rule:nonzero;"/><path d="M4453.1,1851.23c-0,68.544 -39.27,102.815 -117.809,102.815c-79.968,0 -119.951,-34.271 -119.951,-102.815l-0,-1105.26c-0,-68.543 39.983,-102.815 119.951,-102.815c78.539,-0 117.809,34.272 117.809,102.815l-0,1105.26Zm44.981,-1477.97c0,45.696 -15.708,84.251 -47.123,115.667c-31.416,31.416 -69.972,47.124 -115.667,47.124c-45.696,-0 -84.609,-15.708 -116.738,-47.124c-32.13,-31.416 -48.195,-69.971 -48.195,-115.667c-0,-47.124 16.065,-86.393 48.195,-117.809c32.129,-31.416 71.042,-47.124 116.738,-47.124c45.695,0 84.251,15.708 115.667,47.124c31.415,31.416 47.123,70.685 47.123,117.809Z" style="fill:#649037;fill-rule:nonzero;"/><path d="M5436.27,651.724c37.128,-0 75.326,7.854 114.596,23.562c39.27,15.707 77.468,35.699 114.596,59.975l-2.142,0c37.128,27.132 65.687,62.475 85.679,106.028c19.992,43.554 29.988,93.891 29.988,151.01l0,608.323c0,117.095 -38.556,203.489 -115.667,259.18c-75.683,54.264 -151.367,81.395 -227.05,81.395l-342.717,0c-37.128,0 -74.97,-6.425 -113.526,-19.277c-38.555,-12.852 -76.397,-33.558 -113.525,-62.118c-77.111,-54.263 -115.667,-140.657 -115.667,-259.18l0,-608.323c0,-57.119 9.996,-107.456 29.988,-151.01c19.992,-43.553 48.552,-78.896 85.679,-106.028l-2.142,0c35.7,-24.276 73.542,-44.268 113.525,-59.975c39.984,-15.708 78.54,-23.562 115.668,-23.562l342.717,-0Zm-38.556,1088.13c52.836,0 90.32,-14.994 112.454,-44.982c22.134,-29.987 33.201,-62.117 33.201,-96.389l-0,-604.039c-0,-35.7 -11.067,-68.186 -33.201,-97.46c-22.134,-29.274 -59.618,-43.911 -112.454,-43.911l-265.606,0c-52.835,0 -90.32,14.637 -112.454,43.911c-22.134,29.274 -33.201,61.76 -33.201,97.46l0,604.039c0,34.272 11.067,66.402 33.201,96.389c22.134,29.988 59.619,44.982 112.454,44.982l265.606,0Z" style="fill:#649037;fill-rule:nonzero;"/><path d="M6284.49,1851.23c0,68.544 -39.27,102.815 -117.809,102.815c-78.539,0 -117.809,-34.271 -117.809,-102.815l-0,-861.077c-0,-58.547 9.282,-109.241 27.846,-152.081c18.564,-42.839 47.837,-77.825 87.821,-104.957c75.683,-54.263 151.367,-81.395 227.05,-81.395l344.859,-0c72.828,-0 148.511,27.132 227.051,81.395c77.111,54.264 115.667,139.943 115.667,257.038l-0,861.077c-0,68.544 -39.27,102.815 -117.809,102.815c-78.54,0 -117.809,-34.271 -117.809,-102.815l-0,-841.799c-0,-37.128 -11.424,-72.827 -34.272,-107.099l2.142,2.142c-18.564,-34.272 -56.406,-51.408 -113.525,-51.408l-267.748,0c-58.548,0 -97.103,17.136 -115.667,51.408c-19.992,29.988 -29.988,64.973 -29.988,104.957l0,841.799Z" style="fill:#649037;fill-rule:nonzero;"/><g id="g922"><path id="circle98" d="M1205.8,48.595c76.452,-64.413 190.816,-54.639 255.229,21.812c64.413,76.452 54.639,190.816 -21.813,255.229c-76.451,64.413 -190.816,54.639 -255.228,-21.812c-64.413,-76.452 -54.64,-190.816 21.812,-255.229Z" style="fill:#fff;"/><path id="circle102" d="M1619.06,550.073c131.436,-110.739 328.052,-93.936 438.791,37.501c110.74,131.436 93.936,328.052 -37.5,438.791c-131.436,110.74 -328.052,93.936 -438.792,-37.5c-110.739,-131.436 -93.936,-328.052 37.501,-438.792Z" style="fill:#fff;"/><path id="circle116" d="M820.777,1644.39c116.274,-97.965 290.21,-83.1 388.175,33.174c97.965,116.275 83.1,290.21 -33.174,388.176c-116.275,97.965 -290.211,83.1 -388.176,-33.175c-97.965,-116.275 -83.1,-290.21 33.175,-388.175Z" style="fill:#fff;"/><path id="circle118" d="M93.046,528.86c98.72,-83.175 246.397,-70.555 329.572,28.166c83.175,98.721 70.555,246.397 -28.166,329.572c-98.721,83.176 -246.397,70.555 -329.572,-28.166c-83.176,-98.721 -70.555,-246.397 28.166,-329.572Z" style="fill:#fff;"/></g><g id="g941"><path id="circle90" d="M1256.22,923.545c152.157,-128.197 380.669,-107.677 509.975,45.796c129.306,153.473 110.754,382.153 -41.403,510.351c-152.157,128.197 -380.669,107.676 -509.975,-45.797c-129.306,-153.473 -110.754,-382.153 41.403,-510.35Z" style="fill:#649037;"/><path id="circle112" d="M723.016,407.316c131.428,-110.732 328.031,-93.93 438.763,37.498c110.732,131.428 93.93,328.03 -37.498,438.763c-131.427,110.732 -328.03,93.929 -438.762,-37.498c-110.732,-131.428 -93.93,-328.031 37.497,-438.763Z" style="fill:#649037;"/><path id="circle124" d="M324.574,1090.22c115.166,-97.031 287.443,-82.308 384.473,32.858c97.031,115.166 82.308,287.442 -32.858,384.473c-115.165,97.031 -287.442,82.308 -384.473,-32.858c-97.031,-115.166 -82.308,-287.442 32.858,-384.473Z" style="fill:#649037;"/><path id="circle128" d="M1616.59,1725.49c68.858,-58.015 171.862,-49.212 229.877,19.646c58.015,68.858 49.212,171.862 -19.646,229.877c-68.858,58.015 -171.862,49.212 -229.877,-19.646c-58.015,-68.857 -49.212,-171.862 19.646,-229.877Z" style="fill:#649037;"/></g></svg>