<?xml version="1.0" encoding="UTF-8" standalone="no"?><!DOCTYPE svg PUBLIC "-//W3C//DTD SVG 1.1//EN" "http://www.w3.org/Graphics/SVG/1.1/DTD/svg11.dtd"><svg width="100%" height="100%" viewBox="0 0 10000 3334" version="1.1" xmlns="http://www.w3.org/2000/svg" xmlns:xlink="http://www.w3.org/1999/xlink" xml:space="preserve" xmlns:serif="http://www.serif.com/" style="fill-rule:evenodd;clip-rule:evenodd;stroke-linejoin:round;stroke-miterlimit:2;"><g id="on-dark"><g id="rectangle"><g id="text3719"><g transform="matrix(6.51952,0,0,6.51952,4165.14,2352.59)"><g transform="matrix(288,0,0,288,0,0)"><path d="M0.381,-0.435c0,-0.009 -0.001,-0.017 -0.004,-0.026c-0.003,-0.008 -0.006,-0.016 -0.01,-0.023c-0.009,-0.016 -0.027,-0.024 -0.054,-0.024l-0.064,0c-0.027,0 -0.046,0.008 -0.055,0.024c-0.008,0.015 -0.012,0.032 -0.012,0.049l0,0.396c0,0.031 -0.018,0.047 -0.055,0.047c-0.038,-0 -0.057,-0.016 -0.057,-0.047l0,-0.405c0,-0.055 0.018,-0.095 0.054,-0.12c0.037,-0.025 0.072,-0.038 0.107,-0.038l0.101,0c0.015,0 0.032,0.003 0.051,0.009c0.019,0.006 0.037,0.015 0.054,0.028c0.017,-0.013 0.034,-0.022 0.053,-0.028c0.018,-0.006 0.035,-0.009 0.052,-0.009l0.1,0c0.035,0 0.071,0.013 0.106,0.038c0.037,0.025 0.055,0.065 0.055,0.12l0,0.405c0,0.031 -0.019,0.047 -0.056,0.047c-0.037,0 -0.056,-0.016 -0.056,-0.047l0,-0.396c0,-0.009 -0.001,-0.017 -0.003,-0.026c-0.002,-0.009 -0.006,-0.017 -0.011,-0.024l0.001,0.001c-0.005,-0.009 -0.012,-0.015 -0.02,-0.018c-0.008,-0.004 -0.02,-0.006 -0.035,-0.006l-0.063,0c-0.028,0 -0.046,0.008 -0.055,0.024c-0.009,0.015 -0.013,0.031 -0.013,0.049l0,0.396c0,0.031 -0.018,0.047 -0.055,0.047c-0.037,0 -0.056,-0.016 -0.056,-0.047l0,-0.396Z" style="fill:#8fce4f;fill-rule:nonzero;"/></g><g transform="matrix(288,0,0,288,245.952,0)"><path d="M0.184,-0.042c0,0.032 -0.018,0.048 -0.055,0.048c-0.037,0 -0.056,-0.016 -0.056,-0.048l-0,-0.516c-0,-0.032 0.019,-0.048 0.056,-0.048c0.037,0 0.055,0.016 0.055,0.048l0,0.516Zm0.021,-0.69c0,0.021 -0.007,0.039 -0.022,0.054c-0.015,0.015 -0.033,0.022 -0.054,0.022c-0.021,0 -0.039,-0.007 -0.055,-0.022c-0.015,-0.015 -0.022,-0.033 -0.022,-0.054c0,-0.022 0.007,-0.04 0.022,-0.055c0.016,-0.015 0.034,-0.022 0.055,-0.022c0.021,0 0.039,0.007 0.054,0.022c0.015,0.015 0.022,0.033 0.022,0.055Z" style="fill:#8fce4f;fill-rule:nonzero;"/></g><g transform="matrix(288,0,0,288,318.528,0)"><path d="M0.391,-0.602c0.017,0 0.035,0.004 0.053,0.011c0.019,0.007 0.037,0.017 0.054,0.028l-0.001,-0c0.017,0.013 0.031,0.029 0.04,0.049c0.009,0.021 0.014,0.044 0.014,0.071l0,0.284c0,0.055 -0.018,0.095 -0.054,0.121c-0.035,0.025 -0.071,0.038 -0.106,0.038l-0.16,-0c-0.017,-0 -0.035,-0.003 -0.053,-0.009c-0.018,-0.006 -0.036,-0.016 -0.053,-0.029c-0.036,-0.025 -0.054,-0.066 -0.054,-0.121l-0,-0.284c-0,-0.027 0.005,-0.05 0.014,-0.071c0.009,-0.02 0.023,-0.036 0.04,-0.049l-0.001,-0c0.017,-0.011 0.034,-0.021 0.053,-0.028c0.019,-0.007 0.037,-0.011 0.054,-0.011l0.16,0Zm-0.018,0.508c0.025,-0 0.042,-0.007 0.052,-0.021c0.011,-0.014 0.016,-0.029 0.016,-0.045l-0,-0.282c-0,-0.017 -0.005,-0.032 -0.016,-0.045c-0.01,-0.014 -0.027,-0.021 -0.052,-0.021l-0.124,0c-0.025,0 -0.042,0.007 -0.053,0.021c-0.01,0.013 -0.015,0.028 -0.015,0.045l-0,0.282c-0,0.016 0.005,0.031 0.015,0.045c0.011,0.014 0.028,0.021 0.053,0.021l0.124,-0Z" style="fill:#fff;fill-rule:nonzero;"/></g><g transform="matrix(288,0,0,288,493.056,0)"><path d="M0.181,-0.042c-0,0.032 -0.018,0.048 -0.055,0.048c-0.037,0 -0.055,-0.016 -0.055,-0.048l0,-0.402c0,-0.027 0.004,-0.051 0.013,-0.071c0.009,-0.02 0.022,-0.036 0.041,-0.049c0.035,-0.025 0.071,-0.038 0.106,-0.038l0.161,0c0.034,0 0.069,0.013 0.106,0.038c0.036,0.025 0.054,0.065 0.054,0.12l0,0.402c0,0.032 -0.018,0.048 -0.055,0.048c-0.037,0 -0.055,-0.016 -0.055,-0.048l-0,-0.393c-0,-0.017 -0.005,-0.034 -0.016,-0.05l0.001,0.001c-0.009,-0.016 -0.026,-0.024 -0.053,-0.024l-0.125,0c-0.027,0 -0.045,0.008 -0.054,0.024c-0.009,0.014 -0.014,0.03 -0.014,0.049l-0,0.393Z" style="fill:#fff;fill-rule:nonzero;"/></g></g></g></g><g id="icon"><g id="g922"><path id="circle98" d="M2663.28,744.041c69.001,-58.135 172.219,-49.314 230.354,19.687c58.136,69.001 49.314,172.219 -19.686,230.354c-69.001,58.136 -172.219,49.314 -230.355,-19.686c-58.135,-69.001 -49.314,-172.22 19.687,-230.355Z" style="fill:#fff;"/><path id="circle102" d="M3036.26,1196.65c118.626,-99.947 296.08,-84.781 396.027,33.845c99.947,118.627 84.781,296.081 -33.845,396.028c-118.627,99.947 -296.081,84.781 -396.028,-33.846c-99.947,-118.626 -84.781,-296.08 33.846,-396.027Z" style="fill:#fff;"/><path id="circle116" d="M2315.78,2184.31c104.943,-88.418 261.927,-75.002 350.344,29.941c88.418,104.943 75.002,261.927 -29.941,350.344c-104.943,88.418 -261.926,75.002 -350.344,-29.941c-88.418,-104.943 -75.001,-261.927 29.941,-350.344Z" style="fill:#fff;"/><path id="circle118" d="M1658.97,1177.5c89.1,-75.069 222.384,-63.678 297.453,25.421c75.069,89.099 63.678,222.383 -25.421,297.453c-89.1,75.069 -222.384,63.678 -297.453,-25.422c-75.069,-89.099 -63.678,-222.383 25.421,-297.452Z" style="fill:#fff;"/></g><g id="g941"><path id="circle90" d="M2727.59,1533.72c137.328,-115.703 343.57,-97.182 460.273,41.333c116.704,138.516 99.96,344.909 -37.368,460.613c-137.328,115.703 -343.569,97.182 -460.273,-41.333c-116.704,-138.516 -99.96,-344.91 37.368,-460.613Z" style="fill:#8fce4f;"/><path id="circle112" d="M2246.35,1067.8c118.619,-99.941 296.061,-84.776 396.001,33.843c99.94,118.619 84.776,296.061 -33.843,396.001c-118.619,99.941 -296.061,84.776 -396.002,-33.843c-99.94,-118.619 -84.775,-296.061 33.844,-396.001Z" style="fill:#8fce4f;"/><path id="circle124" d="M1886.74,1684.15c103.942,-87.575 259.429,-74.286 347.003,29.656c87.574,103.941 74.286,259.428 -29.656,347.002c-103.942,87.575 -259.428,74.286 -347.003,-29.655c-87.574,-103.942 -74.286,-259.429 29.656,-347.003Z" style="fill:#8fce4f;"/><path id="circle128" d="M3052.83,2257.51c62.147,-52.361 155.113,-44.416 207.474,17.731c52.36,62.147 44.415,155.113 -17.732,207.474c-62.147,52.361 -155.113,44.416 -207.474,-17.731c-52.361,-62.147 -44.415,-155.113 17.732,-207.474Z" style="fill:#8fce4f;"/></g></g></g><g id="on-white"><g id="rectangle1" serif:id="rectangle"><g id="text37191" serif:id="text3719"><g transform="matrix(6.51952,0,0,6.51952,4165.14,2352.59)"><g transform="matrix(288,0,0,288,0,0)"><path d="M0.381,-0.435c0,-0.009 -0.001,-0.017 -0.004,-0.026c-0.003,-0.008 -0.006,-0.016 -0.01,-0.023c-0.009,-0.016 -0.027,-0.024 -0.054,-0.024l-0.064,0c-0.027,0 -0.046,0.008 -0.055,0.024c-0.008,0.015 -0.012,0.032 -0.012,0.049l0,0.396c0,0.031 -0.018,0.047 -0.055,0.047c-0.038,-0 -0.057,-0.016 -0.057,-0.047l0,-0.405c0,-0.055 0.018,-0.095 0.054,-0.12c0.037,-0.025 0.072,-0.038 0.107,-0.038l0.101,0c0.015,0 0.032,0.003 0.051,0.009c0.019,0.006 0.037,0.015 0.054,0.028c0.017,-0.013 0.034,-0.022 0.053,-0.028c0.018,-0.006 0.035,-0.009 0.052,-0.009l0.1,0c0.035,0 0.071,0.013 0.106,0.038c0.037,0.025 0.055,0.065 0.055,0.12l0,0.405c0,0.031 -0.019,0.047 -0.056,0.047c-0.037,0 -0.056,-0.016 -0.056,-0.047l0,-0.396c0,-0.009 -0.001,-0.017 -0.003,-0.026c-0.002,-0.009 -0.006,-0.017 -0.011,-0.024l0.001,0.001c-0.005,-0.009 -0.012,-0.015 -0.02,-0.018c-0.008,-0.004 -0.02,-0.006 -0.035,-0.006l-0.063,0c-0.028,0 -0.046,0.008 -0.055,0.024c-0.009,0.015 -0.013,0.031 -0.013,0.049l0,0.396c0,0.031 -0.018,0.047 -0.055,0.047c-0.037,0 -0.056,-0.016 -0.056,-0.047l0,-0.396Z" style="fill:#8fce4f;fill-rule:nonzero;"/></g><g transform="matrix(288,0,0,288,245.952,0)"><path d="M0.184,-0.042c0,0.032 -0.018,0.048 -0.055,0.048c-0.037,0 -0.056,-0.016 -0.056,-0.048l-0,-0.516c-0,-0.032 0.019,-0.048 0.056,-0.048c0.037,0 0.055,0.016 0.055,0.048l0,0.516Zm0.021,-0.69c0,0.021 -0.007,0.039 -0.022,0.054c-0.015,0.015 -0.033,0.022 -0.054,0.022c-0.021,0 -0.039,-0.007 -0.055,-0.022c-0.015,-0.015 -0.022,-0.033 -0.022,-0.054c0,-0.022 0.007,-0.04 0.022,-0.055c0.016,-0.015 0.034,-0.022 0.055,-0.022c0.021,0 0.039,0.007 0.054,0.022c0.015,0.015 0.022,0.033 0.022,0.055Z" style="fill:#8fce4f;fill-rule:nonzero;"/></g><g transform="matrix(288,0,0,288,318.528,0)"><path d="M0.391,-0.602c0.017,0 0.035,0.004 0.053,0.011c0.019,0.007 0.037,0.017 0.054,0.028l-0.001,-0c0.017,0.013 0.031,0.029 0.04,0.049c0.009,0.021 0.014,0.044 0.014,0.071l0,0.284c0,0.055 -0.018,0.095 -0.054,0.121c-0.035,0.025 -0.071,0.038 -0.106,0.038l-0.16,-0c-0.017,-0 -0.035,-0.003 -0.053,-0.009c-0.018,-0.006 -0.036,-0.016 -0.053,-0.029c-0.036,-0.025 -0.054,-0.066 -0.054,-0.121l-0,-0.284c-0,-0.027 0.005,-0.05 0.014,-0.071c0.009,-0.02 0.023,-0.036 0.04,-0.049l-0.001,-0c0.017,-0.011 0.034,-0.021 0.053,-0.028c0.019,-0.007 0.037,-0.011 0.054,-0.011l0.16,0Zm-0.018,0.508c0.025,-0 0.042,-0.007 0.052,-0.021c0.011,-0.014 0.016,-0.029 0.016,-0.045l-0,-0.282c-0,-0.017 -0.005,-0.032 -0.016,-0.045c-0.01,-0.014 -0.027,-0.021 -0.052,-0.021l-0.124,0c-0.025,0 -0.042,0.007 -0.053,0.021c-0.01,0.013 -0.015,0.028 -0.015,0.045l-0,0.282c-0,0.016 0.005,0.031 0.015,0.045c0.011,0.014 0.028,0.021 0.053,0.021l0.124,-0Z" style="fill:#162d50;fill-rule:nonzero;"/></g><g transform="matrix(288,0,0,288,493.056,0)"><path d="M0.181,-0.042c-0,0.032 -0.018,0.048 -0.055,0.048c-0.037,0 -0.055,-0.016 -0.055,-0.048l0,-0.402c0,-0.027 0.004,-0.051 0.013,-0.071c0.009,-0.02 0.022,-0.036 0.041,-0.049c0.035,-0.025 0.071,-0.038 0.106,-0.038l0.161,0c0.034,0 0.069,0.013 0.106,0.038c0.036,0.025 0.054,0.065 0.054,0.12l0,0.402c0,0.032 -0.018,0.048 -0.055,0.048c-0.037,0 -0.055,-0.016 -0.055,-0.048l-0,-0.393c-0,-0.017 -0.005,-0.034 -0.016,-0.05l0.001,0.001c-0.009,-0.016 -0.026,-0.024 -0.053,-0.024l-0.125,0c-0.027,0 -0.045,0.008 -0.054,0.024c-0.009,0.014 -0.014,0.03 -0.014,0.049l-0,0.393Z" style="fill:#162d50;fill-rule:nonzero;"/></g></g></g></g><g id="icon1" serif:id="icon"><g id="g9221" serif:id="g922"><path id="circle981" serif:id="circle98" d="M2663.28,744.041c69.001,-58.135 172.219,-49.314 230.354,19.687c58.136,69.001 49.314,172.219 -19.686,230.354c-69.001,58.136 -172.219,49.314 -230.355,-19.686c-58.135,-69.001 -49.314,-172.22 19.687,-230.355Z" style="fill:#162d50;"/><path id="circle1021" serif:id="circle102" d="M3036.26,1196.65c118.626,-99.947 296.08,-84.781 396.027,33.845c99.947,118.627 84.781,296.081 -33.845,396.028c-118.627,99.947 -296.081,84.781 -396.028,-33.846c-99.947,-118.626 -84.781,-296.08 33.846,-396.027Z" style="fill:#162d50;"/><path id="circle1161" serif:id="circle116" d="M2315.78,2184.31c104.943,-88.418 261.927,-75.002 350.344,29.941c88.418,104.943 75.002,261.927 -29.941,350.344c-104.943,88.418 -261.926,75.002 -350.344,-29.941c-88.418,-104.943 -75.001,-261.927 29.941,-350.344Z" style="fill:#162d50;"/><path id="circle1181" serif:id="circle118" d="M1658.97,1177.5c89.1,-75.069 222.384,-63.678 297.453,25.421c75.069,89.099 63.678,222.383 -25.421,297.453c-89.1,75.069 -222.384,63.678 -297.453,-25.422c-75.069,-89.099 -63.678,-222.383 25.421,-297.452Z" style="fill:#162d50;"/></g><g id="g9411" serif:id="g941"><path id="circle901" serif:id="circle90" d="M2727.59,1533.72c137.328,-115.703 343.57,-97.182 460.273,41.333c116.704,138.516 99.96,344.909 -37.368,460.613c-137.328,115.703 -343.569,97.182 -460.273,-41.333c-116.704,-138.516 -99.96,-344.91 37.368,-460.613Z" style="fill:#8fce4f;"/><path id="circle1121" serif:id="circle112" d="M2246.35,1067.8c118.619,-99.941 296.061,-84.776 396.001,33.843c99.94,118.619 84.776,296.061 -33.843,396.001c-118.619,99.941 -296.061,84.776 -396.002,-33.843c-99.94,-118.619 -84.775,-296.061 33.844,-396.001Z" style="fill:#8fce4f;"/><path id="circle1241" serif:id="circle124" d="M1886.74,1684.15c103.942,-87.575 259.429,-74.286 347.003,29.656c87.574,103.941 74.286,259.428 -29.656,347.002c-103.942,87.575 -259.428,74.286 -347.003,-29.655c-87.574,-103.942 -74.286,-259.429 29.656,-347.003Z" style="fill:#8fce4f;"/><path id="circle1281" serif:id="circle128" d="M3052.83,2257.51c62.147,-52.361 155.113,-44.416 207.474,17.731c52.36,62.147 44.415,155.113 -17.732,207.474c-62.147,52.361 -155.113,44.416 -207.474,-17.731c-52.361,-62.147 -44.415,-155.113 17.732,-207.474Z" style="fill:#8fce4f;"/></g></g></g></svg>